<?xml version="1.0" standalone="no"?>
<!DOCTYPE svg PUBLIC "-//W3C//DTD SVG 20010904//EN"
 "http://www.w3.org/TR/2001/REC-SVG-20010904/DTD/svg10.dtd">
<svg version="1.0" xmlns="http://www.w3.org/2000/svg"
 width="1366.000000pt" height="768.000000pt" viewBox="0 0 1366.000000 768.000000"
 preserveAspectRatio="xMidYMid meet">
<metadata>
Created by potrace 1.16, written by Peter Selinger 2001-2019
</metadata>
<g transform="translate(0.000000,768.000000) scale(0.100000,-0.100000)"
fill="#000000" stroke="none">
<path d="M10055 6785 c-3 -14 -8 -37 -12 -52 -4 -16 -7 -35 -8 -43 -1 -8 -9
-32 -19 -53 -12 -28 -14 -42 -6 -52 11 -14 3 -48 -10 -40 -5 3 -15 -2 -22 -11
-30 -36 -73 -74 -86 -74 -11 0 -12 -3 -3 -13 8 -10 7 -18 -2 -31 -12 -17 -15
-17 -49 1 -20 10 -39 25 -42 33 -3 8 -8 20 -11 25 -3 7 9 10 30 10 43 -2 70
29 35 40 -11 3 -20 11 -20 16 0 12 -33 12 -46 -1 -8 -8 -19 -7 -38 1 -22 11
-32 10 -54 -3 -15 -8 -31 -14 -37 -12 -5 2 -11 -8 -12 -23 0 -14 2 -21 6 -14
5 8 15 9 31 3 16 -6 20 -11 11 -16 -9 -6 -9 -11 0 -22 16 -19 -20 -54 -55 -54
-28 0 -43 -17 -28 -32 6 -6 6 -20 -1 -41 -15 -41 -17 -44 -25 -31 -4 7 -18 8
-38 2 -26 -7 -33 -15 -40 -45 -8 -42 -8 -41 2 -66 5 -13 1 -20 -15 -24 -27 -7
-28 -33 -1 -33 23 0 26 -10 8 -29 -11 -11 -8 -12 15 -7 18 4 27 2 27 -6 0 -10
2 -10 9 1 6 9 11 10 15 2 13 -20 -5 -31 -43 -26 -37 5 -39 3 -45 -27 -4 -19
-2 -34 4 -36 5 -2 10 -19 10 -38 0 -29 4 -34 23 -34 31 0 43 -10 51 -42 7 -29
-2 -36 -22 -16 -9 9 -16 6 -30 -10 -11 -12 -28 -22 -38 -22 -18 -1 -18 -1 0
-15 11 -8 16 -18 12 -22 -4 -4 -11 -2 -15 6 -11 17 -88 -3 -118 -32 -26 -24
-30 -55 -8 -63 8 -4 15 -12 15 -18 0 -17 -45 -40 -63 -33 -19 7 -49 -27 -35
-41 7 -7 7 -16 0 -27 -5 -10 -7 -26 -4 -37 4 -17 7 -16 22 10 17 27 100 79
100 62 0 -5 -5 -10 -11 -12 -7 -2 -9 -13 -4 -27 l7 -23 33 32 c37 36 67 36 58
0 -4 -13 1 -26 12 -33 16 -12 15 -16 -6 -56 -12 -24 -31 -46 -41 -49 -10 -2
-18 -8 -18 -12 0 -4 -11 -7 -25 -7 -18 0 -25 5 -26 21 -1 12 -4 7 -8 -13 l-6
-33 -73 0 c-40 0 -76 3 -79 6 -11 11 -40 6 -53 -9 -17 -21 -33 -8 -26 21 8 30
3 30 -24 2 -11 -12 -23 -19 -26 -15 -4 4 -13 2 -20 -4 -8 -6 -14 -6 -18 0 -11
16 -9 105 3 134 6 17 7 27 1 27 -6 0 -10 -4 -10 -10 0 -5 -5 -10 -11 -10 -7 0
-9 9 -5 23 4 12 10 47 13 77 4 45 3 52 -8 43 -12 -9 -14 3 -15 70 -3 135 -4
151 -10 144 -6 -6 -23 -169 -24 -224 0 -13 -5 -23 -10 -23 -6 0 -10 5 -10 10
0 6 -6 10 -14 10 -8 0 -17 8 -19 18 -8 27 -1 324 8 350 11 33 -12 28 -30 -8
-8 -16 -15 -38 -15 -50 0 -27 -24 -26 -38 3 l-11 22 0 -25 c-1 -31 -26 -102
-33 -98 -10 5 -48 -49 -48 -67 0 -9 -4 -24 -9 -33 -8 -15 -18 -81 -20 -133 -1
-9 -15 -22 -31 -29 -26 -11 -33 -10 -50 5 -14 12 -18 25 -14 41 7 28 3 29 -36
9 -27 -14 -29 -14 -35 5 -4 11 -4 29 0 40 3 10 1 28 -5 40 -6 11 -18 59 -27
107 -8 49 -20 93 -25 100 -5 7 -7 17 -3 23 11 17 -5 32 -21 19 -11 -9 -14 -7
-14 12 -1 81 -51 28 -58 -61 -3 -30 -4 -97 -3 -149 0 -53 -4 -100 -10 -107 -7
-9 -7 -19 -1 -31 11 -19 0 -51 -22 -65 -7 -5 -7 -8 2 -8 7 0 10 -5 7 -10 -11
-17 -54 -5 -71 19 -13 17 -14 28 -6 45 11 25 1 52 -16 42 -6 -3 -13 -24 -17
-45 -4 -22 -12 -44 -19 -50 -9 -8 -12 25 -13 140 0 83 -4 153 -8 157 -4 4 -15
-3 -24 -15 -13 -16 -21 -19 -29 -11 -12 12 -46 -8 -37 -22 2 -4 0 -23 -6 -43
-7 -26 -7 -43 1 -57 9 -16 7 -28 -11 -60 -16 -28 -20 -48 -16 -74 3 -20 1 -38
-4 -41 -5 -4 -9 -19 -9 -35 0 -20 -8 -35 -24 -46 -15 -9 -22 -21 -19 -30 3 -8
-1 -14 -8 -14 -29 -1 -99 -82 -99 -114 0 -9 -4 -16 -10 -16 -5 0 -10 -8 -10
-18 0 -10 -5 -23 -12 -30 -9 -9 -8 -12 5 -12 9 0 17 -4 17 -10 0 -5 -4 -10 -9
-10 -17 0 -23 -40 -9 -58 12 -15 11 -16 -5 -3 -16 13 -21 12 -39 -7 -18 -17
-19 -23 -8 -36 11 -14 9 -16 -17 -16 -16 0 -35 -6 -41 -12 -10 -10 -17 -10
-32 0 -26 16 -33 15 -26 -3 3 -8 1 -15 -5 -15 -6 0 -7 -5 -4 -11 4 -6 13 -8
21 -5 8 3 17 -1 20 -9 4 -8 10 -15 15 -15 14 0 11 28 -3 33 -10 4 -10 6 -1 6
17 1 27 -19 31 -64 5 -60 8 -78 15 -97 17 -43 17 -49 1 -46 -24 5 -43 69 -30
98 8 17 7 25 -2 28 -7 2 -10 8 -6 13 3 5 -8 9 -24 9 -35 0 -42 -13 -42 -81 0
-37 -4 -49 -15 -49 -8 0 -15 -4 -15 -10 0 -5 -8 -10 -19 -10 -16 0 -20 11 -26
66 -9 89 -22 72 -45 -57 -10 -57 -19 -102 -20 -99 -1 3 -2 80 -3 172 -2 149
-4 168 -21 187 -17 18 -21 19 -28 7 -7 -12 -12 -11 -33 8 -20 18 -25 33 -25
70 0 29 -4 45 -10 41 -5 -3 -10 -23 -10 -43 0 -53 -11 -112 -21 -112 -5 0 -12
12 -15 26 -7 29 -20 22 -27 -16 -3 -14 -5 5 -3 43 1 37 -1 67 -5 67 -18 0 -43
-130 -55 -290 -4 -61 -9 -78 -18 -69 -2 2 -7 42 -10 89 -4 47 -9 95 -13 108
-11 45 -28 15 -33 -59 -6 -73 -6 -73 -19 -42 -16 41 -33 34 -21 -8 15 -52 22
-163 12 -189 -7 -19 -16 -25 -38 -24 -49 3 -74 15 -75 38 0 18 -2 17 -11 -6
-13 -36 -23 -35 -37 2 -12 37 -43 40 -74 6 -28 -31 -75 -43 -83 -21 -4 8 -12
15 -19 15 -8 0 -15 8 -17 17 -2 13 -9 8 -25 -20 -14 -23 -30 -37 -43 -37 -11
0 -20 5 -20 10 0 6 -10 8 -22 5 -13 -2 -73 -7 -135 -10 -62 -2 -116 -5 -120
-6 -31 -5 -53 3 -53 20 0 10 -5 32 -11 50 -9 27 -16 32 -38 29 -20 -2 -27 -9
-29 -30 -2 -20 -9 -28 -23 -28 -25 0 -25 -20 1 -27 29 -8 24 -18 -10 -20 -23
-2 -30 2 -30 16 0 10 -8 36 -17 57 l-17 39 -3 -30 c-8 -73 -7 -72 -75 -73 -42
-1 -58 2 -48 8 22 14 -26 13 -51 -1 -16 -8 -23 -7 -32 5 -7 8 -28 23 -47 31
-52 24 -86 45 -74 45 6 0 16 12 23 26 11 24 9 26 -29 41 -31 12 -39 20 -34 32
11 26 13 71 3 77 -6 3 -7 15 -3 26 8 28 -23 50 -63 43 -34 -6 -55 11 -32 26
12 7 11 11 -3 26 -15 15 -22 15 -51 5 -41 -15 -47 -15 -47 -2 0 5 3 9 8 8 15
-3 42 15 42 29 0 11 -9 12 -37 8 l-38 -7 29 17 c20 10 40 14 60 9 17 -4 46 -6
65 -6 19 1 40 -3 48 -9 14 -13 17 -2 7 25 -4 10 -18 16 -39 16 -19 0 -36 4
-39 9 -9 14 -77 21 -97 10 -15 -7 -19 -6 -19 6 0 10 -9 15 -27 15 -32 0 -61
-15 -50 -26 3 -4 13 -2 20 4 10 9 16 9 25 0 8 -8 5 -17 -14 -35 -21 -19 -28
-21 -44 -11 -24 15 -35 41 -21 46 6 2 11 8 11 13 0 6 -15 7 -35 3 -40 -7 -46
5 -16 35 17 17 25 18 62 10 35 -8 46 -7 54 4 13 18 45 25 63 14 7 -5 12 -4 12
2 0 6 -11 13 -25 17 -33 8 -33 23 0 16 36 -6 32 21 -5 35 -23 9 -36 8 -65 -5
-19 -9 -35 -22 -35 -29 0 -15 -36 -18 -45 -3 -3 6 -1 10 4 10 6 0 11 7 11 16
0 11 -5 14 -17 9 -34 -13 -81 -17 -87 -7 -3 5 8 19 25 30 l31 19 -26 7 c-14 3
-26 11 -26 16 0 12 17 13 24 1 3 -5 21 -8 38 -7 18 2 36 -2 39 -7 4 -5 13 -6
20 -1 8 5 30 9 49 10 61 4 66 5 38 16 -27 9 -41 48 -18 48 6 0 10 -9 10 -20 0
-11 5 -20 10 -20 6 0 10 7 10 15 0 8 9 15 20 15 11 0 20 7 20 15 0 9 -6 15
-12 14 -7 -1 -21 1 -30 5 -10 5 -25 6 -33 2 -8 -3 -17 -4 -19 -3 -1 1 -10 -4
-19 -11 -9 -8 -21 -11 -27 -7 -6 4 -29 -5 -50 -19 -49 -32 -60 -33 -60 -1 0
16 -6 25 -15 25 -8 0 -15 -5 -15 -11 0 -6 -9 -9 -20 -6 -11 3 -23 1 -26 -4 -7
-12 -44 -12 -44 0 0 5 -10 13 -22 17 -13 3 -31 13 -41 22 -24 21 -29 12 -19
-34 14 -67 10 -89 -17 -90 -13 -1 -31 7 -40 18 -31 38 -46 39 -81 8 -19 -17
-40 -30 -47 -30 -7 0 -13 -7 -13 -16 0 -10 -5 -14 -15 -10 -11 4 -19 -3 -25
-20 -11 -29 -33 -28 -39 2 -2 10 -11 24 -21 31 -16 11 -17 19 -8 49 11 43 5
53 -20 31 -10 -10 -22 -17 -25 -17 -4 0 -15 -8 -26 -19 -10 -10 -25 -21 -32
-23 -12 -4 -12 -7 0 -21 11 -14 11 -18 -4 -24 -11 -4 -22 0 -30 10 -7 10 -17
17 -23 17 -5 0 -13 7 -16 16 -4 9 -13 14 -21 10 -8 -3 -31 6 -51 19 -39 27
-55 26 -47 -4 4 -15 -3 -19 -37 -25 -31 -5 -40 -10 -36 -21 3 -9 0 -15 -9 -15
-8 0 -15 -5 -15 -10 0 -6 -10 -2 -22 10 -12 11 -28 20 -35 20 -7 0 -13 5 -13
10 0 6 11 8 26 4 23 -6 25 -4 22 17 -2 19 -10 25 -41 29 -21 3 -37 8 -37 13 0
4 -7 21 -15 38 -22 41 -56 37 -67 -8 -10 -38 -10 -38 -51 -19 -76 35 -111 46
-129 40 -10 -3 -18 -1 -18 5 0 6 -6 11 -14 11 -8 0 -17 13 -21 29 -7 31 -27
44 -93 61 -24 6 -52 20 -63 31 -10 10 -23 19 -29 19 -5 0 -14 9 -20 20 -6 11
-17 20 -25 20 -7 0 -16 8 -20 19 -8 28 -77 55 -119 47 -19 -4 -37 -12 -39 -19
-3 -7 -12 5 -21 25 -20 47 -20 51 3 43 13 -4 20 0 24 15 7 27 -3 31 -46 18
-31 -10 -40 -9 -56 6 -18 16 -23 17 -50 5 -17 -8 -31 -17 -31 -21 0 -5 -5 -8
-11 -8 -6 0 -9 6 -6 14 3 8 -2 16 -14 19 -25 7 -24 27 1 34 33 9 23 23 -15 20
-19 -1 -37 -8 -40 -16 -8 -21 -47 18 -43 44 3 26 -27 59 -47 51 -8 -3 -17 -1
-21 5 -4 6 -10 6 -19 -1 -11 -9 -19 -7 -36 9 -13 12 -27 17 -31 13 -15 -15
-56 -1 -61 19 -5 20 -27 27 -27 9 0 -5 -7 -10 -15 -10 -8 0 -15 -4 -15 -10 0
-22 -29 -8 -64 33 -34 38 -38 41 -50 25 -14 -19 -36 -24 -36 -10 0 5 -9 19
-19 31 -11 13 -22 28 -24 34 -7 20 -58 -34 -52 -54 8 -25 -29 -42 -74 -34
l-36 7 24 -26 c26 -28 17 -39 -29 -34 -22 3 -23 0 -21 -42 1 -25 1 -69 1 -97
-1 -31 3 -53 9 -53 16 0 13 -26 -3 -39 -13 -11 -15 -210 -15 -1426 -1 -932 3
-1416 9 -1420 6 -4 7 -11 3 -18 -4 -6 -8 -130 -9 -276 -3 -267 1 -309 32 -297
11 4 14 1 9 -13 -6 -20 13 -40 24 -25 7 10 71 15 71 5 -1 -10 -51 -43 -57 -37
-10 10 -64 -25 -72 -47 -4 -12 -7 -50 -7 -85 1 -49 5 -67 19 -77 17 -12 86
-23 212 -32 33 -2 124 -12 203 -22 111 -13 145 -15 153 -5 5 6 19 10 29 7 11
-3 20 0 20 6 0 6 7 11 15 11 19 0 19 -34 0 -50 -19 -16 -19 -57 0 -94 8 -15
15 -38 15 -50 0 -12 7 -31 15 -42 18 -24 19 -54 3 -55 -7 0 -3 -4 10 -9 31
-13 37 -36 16 -57 -17 -17 -17 -18 1 -22 10 -2 25 5 32 15 12 16 15 17 24 4 9
-13 10 -12 5 2 -4 14 7 24 48 43 62 29 69 30 86 10 7 -8 21 -15 32 -15 21 0
34 -23 22 -41 -5 -9 -10 -8 -18 4 -10 12 -12 8 -13 -24 -2 -45 3 -50 17 -14 5
14 15 24 22 23 8 -2 12 5 10 20 -2 15 5 30 23 44 20 16 23 23 14 34 -17 21
-27 17 -22 -10 6 -30 -24 -44 -42 -20 -6 10 -17 14 -23 10 -7 -4 -12 -1 -12 6
0 12 74 42 105 43 6 1 31 13 56 28 52 31 74 35 65 11 -3 -8 2 -23 11 -32 15
-16 16 -15 10 10 -17 66 -26 80 -50 73 -16 -6 -19 -4 -11 4 18 19 61 3 68 -25
4 -14 11 -22 17 -18 6 3 9 15 6 25 -3 12 0 19 8 19 8 0 16 -8 18 -17 4 -15 6
-14 12 5 6 18 12 22 29 17 11 -4 35 -9 51 -12 17 -3 33 -11 37 -17 10 -15 15
-6 20 29 l3 30 -52 -1 c-37 -1 -53 2 -53 11 0 9 15 13 45 13 51 0 74 10 54 23
-8 5 -29 6 -46 3 -21 -4 -33 -2 -33 5 0 8 -6 7 -20 -1 -16 -11 -23 -10 -37 6
-13 13 -15 20 -5 23 19 7 3 23 -24 23 -13 0 -24 5 -24 11 0 6 9 8 20 4 13 -4
28 2 47 20 l28 25 -22 6 c-28 8 -30 24 -3 24 24 0 27 15 4 24 -8 3 -12 10 -9
16 3 5 -1 10 -10 10 -13 0 -16 -6 -11 -25 6 -22 3 -25 -21 -26 l-28 -1 27 -11
c33 -13 44 -35 21 -44 -10 -4 -23 2 -36 18 -13 16 -21 20 -24 12 -3 -7 -10
-13 -17 -13 -17 0 -61 -38 -53 -46 3 -4 13 1 22 10 9 9 22 16 30 16 7 0 15 6
18 13 2 6 8 9 12 5 5 -5 1 -16 -8 -26 -21 -23 -21 -32 -2 -32 8 0 15 -5 15
-11 0 -5 5 -7 11 -3 7 4 10 1 7 -7 -3 -8 -18 -17 -34 -20 l-29 -6 28 -7 c26
-8 38 -38 18 -50 -5 -4 -7 3 -4 14 3 11 0 20 -6 20 -6 0 -11 -4 -11 -9 0 -13
-30 -22 -43 -14 -20 12 -187 15 -187 4 0 -6 -8 -11 -17 -11 -15 0 -16 -2 -3
-10 22 -14 23 -58 1 -65 -10 -3 -29 -14 -41 -25 -25 -22 -50 -26 -50 -9 0 14
-25 39 -39 39 -14 0 -14 2 4 36 8 16 15 35 15 42 0 15 -16 16 -26 1 -4 -7 -15
-1 -30 17 -33 41 -30 48 19 40 131 -20 134 -19 232 55 50 37 123 95 163 127
129 105 162 126 162 105 0 -10 3 -29 7 -42 5 -21 3 -23 -16 -18 -18 4 -20 3
-11 -8 15 -19 3 -40 -14 -26 -13 11 -26 5 -26 -11 0 -13 98 -9 104 5 5 9 7 9
12 0 8 -19 27 -16 20 2 -3 10 -1 15 7 14 6 -1 20 1 30 6 23 10 36 -3 17 -16
-11 -8 -10 -9 8 -4 12 4 22 2 22 -4 0 -15 -22 -26 -50 -26 -27 0 -37 -30 -10
-31 8 0 22 -3 30 -6 8 -4 27 -8 42 -11 22 -3 28 0 28 15 0 11 -4 17 -9 13 -15
-9 -24 14 -11 30 8 10 6 18 -11 34 -13 12 -29 21 -36 21 -27 0 -12 15 17 16
19 1 30 -4 33 -15 3 -11 7 -7 16 13 6 16 14 26 18 22 3 -3 12 -1 20 5 10 9 13
6 13 -15 0 -15 -6 -26 -14 -26 -17 0 -29 -41 -16 -54 7 -7 10 -4 10 7 0 9 8
20 18 26 11 6 17 22 17 43 0 31 3 33 33 32 17 -1 32 2 32 7 0 5 -5 9 -11 9 -6
0 -9 6 -6 13 2 6 13 11 23 9 18 -3 18 -3 1 15 -12 12 -20 14 -25 7 -4 -6 -28
-14 -54 -17 -26 -3 -57 -11 -69 -17 -24 -14 -39 -1 -39 35 0 14 -3 16 -11 8
-8 -8 -8 -17 0 -31 7 -13 7 -23 2 -27 -6 -3 -15 4 -21 15 -6 11 -15 18 -20 15
-9 -6 -50 15 -50 25 0 3 24 24 53 45 28 22 86 67 127 99 236 188 291 231 350
280 36 29 92 72 125 96 33 24 87 67 120 95 33 29 104 84 157 124 54 40 100 77
104 82 3 5 31 28 62 51 31 23 65 49 76 59 22 18 171 134 326 254 50 39 110 85
133 103 23 18 61 47 85 65 24 18 49 37 56 44 27 24 147 113 153 113 3 0 13 8
22 19 9 10 26 21 39 25 12 4 22 12 22 18 0 6 11 8 28 4 15 -3 21 -3 15 0 -17
7 -16 32 0 48 20 20 57 30 57 15 0 -8 7 -5 20 6 19 18 20 17 21 -6 l0 -24 9
23 c7 16 18 22 38 22 44 0 57 23 38 70 -4 9 2 20 14 28 17 10 21 10 26 -3 4
-8 1 -22 -6 -30 -6 -8 -9 -18 -6 -23 8 -14 -32 -52 -54 -52 -15 0 -20 -7 -20
-25 0 -35 -26 -72 -56 -79 -17 -5 -24 -13 -24 -31 0 -16 -10 -31 -27 -42 -16
-10 -30 -20 -33 -23 -3 -3 -21 -14 -41 -23 -26 -12 -38 -25 -42 -46 -7 -33
-67 -73 -67 -45 0 14 -2 14 -15 0 -20 -19 -19 -26 3 -27 13 0 12 -3 -5 -11
-27 -13 -30 -28 -6 -28 12 0 14 -3 6 -11 -5 -5 -22 -7 -37 -3 -22 5 -25 10
-20 28 6 20 6 20 -13 4 -11 -10 -27 -18 -35 -18 -9 0 -21 -6 -27 -14 -10 -11
-8 -16 8 -21 21 -6 30 -35 11 -35 -5 0 -10 -4 -10 -9 0 -18 38 1 51 25 8 16
16 21 22 15 7 -7 6 -16 -3 -26 -10 -12 -10 -15 4 -15 9 0 16 8 16 17 0 13 3
14 11 6 16 -16 4 -44 -16 -37 -9 4 -21 -1 -29 -11 -7 -10 -18 -15 -24 -11 -7
4 -12 1 -12 -8 0 -9 7 -16 15 -16 8 0 15 -9 15 -20 0 -34 -25 -22 -48 23 -12
23 -22 40 -23 37 -10 -57 -19 -80 -19 -48 0 9 -7 21 -15 28 -12 10 -13 6 -8
-24 3 -21 1 -42 -6 -49 -6 -8 -9 -17 -6 -20 3 -4 2 -4 -2 -1 -4 3 -8 22 -8 41
0 24 -5 38 -15 40 -13 4 -13 3 0 -6 13 -9 12 -12 -5 -25 -11 -9 -23 -16 -27
-16 -20 0 -5 -20 14 -20 l22 0 -23 -16 c-18 -13 -25 -14 -31 -4 -6 9 -14 8
-36 -6 -16 -10 -32 -23 -36 -29 -5 -6 -8 -3 -8 8 0 11 -8 17 -21 17 -18 0 -19
-3 -10 -14 18 -22 -27 -49 -65 -40 l-29 7 32 -32 c18 -17 29 -31 25 -31 -4 0
-8 -16 -8 -35 -1 -22 3 -35 11 -35 7 0 15 -7 19 -15 3 -8 1 -15 -4 -15 -6 0
-10 5 -10 10 0 6 -11 10 -24 10 -14 0 -28 5 -31 11 -8 11 -35 -34 -35 -57 0
-8 -6 -11 -15 -8 -10 4 -12 11 -6 23 5 9 9 26 8 36 -1 11 4 20 13 20 8 1 14 6
13 13 -2 7 2 12 9 12 9 0 8 3 -1 13 -11 9 -14 10 -18 0 -3 -7 -11 -13 -19 -13
-9 0 -12 -4 -9 -10 3 -5 1 -10 -5 -10 -6 0 -13 7 -16 15 -4 8 -10 15 -16 15
-5 0 -2 -10 6 -22 22 -31 21 -88 -1 -88 -15 0 -15 -2 0 -17 13 -16 13 -20 1
-31 -8 -8 -22 -11 -30 -8 -23 9 -37 -3 -24 -19 18 -21 -9 -57 -37 -50 -13 3
-23 1 -23 -5 0 -6 -13 -16 -30 -21 -22 -8 -30 -17 -30 -35 0 -28 -3 -29 -33
-10 -12 7 -41 16 -65 19 -35 4 -41 3 -32 -8 6 -8 24 -16 39 -20 18 -4 28 -12
27 -22 0 -10 9 -19 24 -23 l25 -6 -27 -6 c-15 -3 -30 -3 -33 0 -14 14 -35 9
-35 -9 0 -17 3 -18 20 -9 16 8 20 8 20 -3 0 -22 -27 -40 -50 -34 -11 3 -20 1
-20 -4 0 -5 7 -9 16 -9 8 0 13 -4 9 -9 -3 -5 -1 -12 5 -16 5 -3 10 -12 10 -18
0 -7 -7 -4 -14 6 -15 20 -33 22 -38 6 -3 -9 -10 -9 -27 0 -20 11 -22 11 -19
-6 2 -10 10 -17 17 -15 15 3 11 -30 -5 -35 -6 -2 -16 8 -24 22 -7 14 -19 25
-26 25 -7 0 -18 8 -24 18 -8 13 -9 7 -4 -28 3 -25 11 -50 16 -57 15 -18 -19
-51 -48 -45 -29 5 -32 22 -4 22 15 0 20 7 20 25 0 20 -5 25 -26 25 -14 0 -23
-4 -20 -9 7 -10 -19 -23 -28 -14 -3 4 -1 12 5 19 9 10 7 15 -4 20 -23 8 -37
-4 -37 -32 0 -17 -5 -24 -19 -24 -21 0 -37 17 -26 28 3 3 10 0 15 -8 5 -8 13
-11 17 -6 4 5 2 11 -4 13 -21 7 -15 33 7 33 13 0 24 10 30 25 11 28 20 31 39
13 11 -11 13 -10 7 5 -3 10 -6 22 -6 25 0 4 -12 8 -28 8 -15 1 -21 -1 -14 -3
20 -8 14 -20 -13 -27 -14 -4 -25 -12 -25 -19 -1 -17 -50 -52 -50 -35 0 7 9 19
20 26 24 14 27 42 4 42 -8 0 -12 -4 -9 -10 3 -6 -1 -7 -9 -4 -9 3 -16 1 -16
-5 0 -6 5 -11 11 -11 5 0 7 -5 3 -11 -4 -8 -9 -7 -15 2 -4 7 -11 10 -16 6 -4
-5 -1 -13 7 -18 12 -8 12 -12 2 -16 -10 -4 -9 -8 4 -17 15 -11 13 -14 -15 -25
-17 -8 -31 -17 -31 -21 0 -17 15 -18 42 -4 17 9 32 13 36 10 3 -3 3 -6 -1 -6
-3 0 0 -20 7 -44 12 -39 11 -45 -6 -67 l-20 -24 5 25 c2 14 7 32 9 40 3 8 3
12 1 7 -3 -4 -18 2 -34 14 -22 16 -33 18 -43 10 -7 -6 -20 -10 -27 -8 -8 2
-11 2 -6 0 4 -3 7 -11 7 -19 0 -8 10 -14 26 -14 24 0 26 -3 21 -29 -3 -16 -1
-33 6 -40 9 -9 6 -16 -13 -31 -21 -17 -23 -21 -10 -30 8 -5 21 -10 28 -10 24
0 11 -26 -33 -65 -49 -43 -53 -50 -30 -59 10 -3 33 13 65 45 28 28 50 44 50
36 0 -7 -16 -27 -35 -43 -19 -16 -35 -31 -35 -34 0 -11 1483 -1 2025 14 182 5
373 10 425 12 192 5 258 10 271 21 8 6 26 9 42 7 15 -1 27 2 27 7 0 5 -4 9
-10 9 -5 0 -9 10 -9 23 1 16 3 17 6 5 4 -16 7 -16 33 4 17 12 37 19 49 15 16
-4 21 0 21 13 0 21 35 51 81 70 17 8 42 24 54 36 21 20 26 22 54 11 25 -9 36
-9 52 1 26 16 29 14 22 -20 -3 -18 -11 -26 -24 -25 -10 1 -19 5 -19 9 0 9 -61
11 -84 2 -9 -3 -16 -16 -16 -28 0 -14 -3 -17 -8 -8 -12 18 -74 -14 -70 -37 2
-9 9 -17 16 -17 6 -1 17 -2 23 -3 5 0 7 -6 4 -11 -4 -6 -11 -8 -16 -5 -5 4 -9
-6 -9 -20 0 -17 4 -24 12 -19 6 4 8 3 4 -4 -8 -14 24 -185 37 -193 6 -4 7 -14
4 -23 -5 -13 4 -19 38 -28 25 -7 45 -16 45 -20 0 -4 5 -8 10 -8 12 0 71 -39
81 -54 4 -5 21 -6 38 -3 19 4 31 2 31 -4 0 -6 5 -7 10 -4 6 3 10 -5 10 -19 0
-16 7 -27 20 -31 11 -3 20 -13 20 -21 0 -8 5 -12 10 -9 11 7 33 -12 42 -36 5
-12 16 -15 37 -13 17 2 31 -1 31 -6 0 -6 -7 -10 -16 -10 -13 0 -15 -6 -9 -27
7 -30 21 -43 46 -43 8 0 24 -6 35 -14 17 -14 15 -15 -27 -12 -35 2 -46 -1 -42
-11 3 -7 -1 -13 -8 -14 -8 0 0 -5 16 -10 17 -5 49 -7 73 -4 36 5 41 9 31 21
-9 11 -8 14 4 14 9 0 19 -4 22 -10 8 -12 25 -13 25 -2 0 5 -10 14 -22 20 -15
7 -17 11 -8 11 12 1 12 3 2 10 -8 5 -11 17 -7 34 6 23 9 24 26 14 10 -6 19
-17 19 -24 0 -9 7 -10 26 -3 32 13 37 12 29 0 -3 -6 4 -10 17 -10 22 1 22 1 4
15 -11 8 -29 15 -40 15 -15 0 -17 3 -8 12 9 9 20 8 47 -5 27 -13 41 -15 56 -7
11 6 17 15 15 19 -3 4 6 6 19 3 33 -6 31 -17 -5 -32 -16 -7 -30 -16 -30 -21 0
-5 9 -4 19 3 15 9 23 9 37 -3 16 -12 17 -12 11 3 -3 10 -2 20 4 23 5 4 7 11 4
16 -4 5 -2 9 4 9 5 0 12 -10 14 -22 3 -18 5 -16 5 7 2 39 -12 64 -22 39 -7
-19 -21 -11 -21 14 0 22 24 31 53 21 21 -8 23 -6 20 13 -2 17 -9 22 -22 20
-16 -3 -18 -1 -9 10 9 10 8 18 -3 32 -8 11 -14 26 -14 34 0 7 -7 21 -16 29
-13 14 -17 14 -26 2 -6 -10 -11 -10 -14 -3 -3 7 -13 10 -23 7 -10 -3 -22 0
-25 6 -7 10 14 16 38 12 5 -1 17 5 26 14 17 15 19 15 28 -1 8 -15 11 -13 17
14 3 18 11 32 16 32 12 0 12 -47 -1 -55 -6 -4 -3 -16 10 -32 11 -14 20 -31 20
-38 0 -7 11 -21 25 -31 14 -10 25 -26 25 -36 0 -9 7 -24 16 -32 12 -12 12 -16
2 -16 -9 -1 -8 -4 3 -10 9 -5 26 -8 38 -5 11 2 21 0 21 -6 0 -5 -11 -9 -25 -9
-24 0 -24 0 -7 -29 9 -16 19 -28 23 -26 3 3 16 -7 29 -20 19 -20 21 -27 10
-40 -7 -8 -10 -18 -7 -22 4 -3 9 2 13 11 3 9 9 16 13 16 12 0 32 -50 25 -61
-9 -15 4 -59 17 -59 8 0 7 5 -1 15 -7 9 -8 15 -2 15 13 0 22 -25 22 -61 0 -38
-23 -38 -42 1 -13 28 -16 29 -28 14 -12 -14 -12 -17 3 -26 10 -5 15 -13 12
-19 -4 -5 0 -9 8 -9 8 0 18 -10 22 -22 l8 -23 4 23 c5 27 29 29 45 3 11 -18
13 -18 24 -3 10 14 14 12 29 -17 12 -25 20 -30 28 -22 18 18 47 13 47 -9 0
-11 5 -20 11 -20 5 0 7 -5 4 -10 -3 -6 -17 -7 -29 -4 -37 9 -41 -21 -6 -46 35
-25 39 -40 9 -33 -19 5 -20 4 -8 -15 7 -11 23 -23 36 -27 12 -3 37 -27 54 -53
18 -26 40 -56 50 -67 10 -11 18 -23 18 -28 1 -18 32 -65 46 -71 9 -3 14 -10
11 -14 -3 -5 6 -15 19 -22 14 -7 25 -17 25 -22 0 -12 -13 -10 -36 7 -12 8 -24
12 -27 8 -4 -3 -11 6 -16 20 -11 28 -27 42 -34 30 -3 -5 8 -27 24 -51 16 -23
29 -45 29 -47 0 -13 58 -58 98 -75 12 -5 25 -18 29 -27 4 -10 12 -22 20 -26 7
-4 13 -19 13 -32 l0 -25 143 0 c131 0 144 2 157 20 9 12 21 18 32 14 10 -3 25
1 33 10 22 21 19 27 -10 20 -15 -4 -25 -2 -25 4 0 6 -9 14 -20 17 -11 3 -20
10 -20 14 0 15 38 51 53 51 20 0 39 33 31 54 -7 19 -7 19 -66 1 -51 -15 -62
-7 -25 21 l22 16 -25 -5 c-14 -3 -33 0 -44 9 -19 13 -18 14 9 14 28 0 28 0 9
19 -10 10 -25 16 -31 13 -7 -2 -13 3 -13 11 0 10 8 15 20 14 11 -1 20 -8 20
-15 0 -11 3 -12 14 -2 8 6 14 17 12 23 -1 7 -1 9 1 6 2 -4 12 -5 23 -2 12 3
23 -3 32 -16 7 -12 16 -21 20 -21 14 0 9 38 -5 43 -14 5 -16 41 -4 53 13 14 7
22 -13 17 -13 -4 -20 -14 -21 -32 -1 -18 -3 -21 -6 -7 -4 14 -11 17 -34 12
-17 -3 -29 -1 -29 5 0 21 -29 40 -52 34 -20 -5 -25 0 -34 30 -10 31 -9 35 7
35 10 0 20 8 22 17 4 14 5 12 6 -4 0 -13 -3 -23 -9 -23 -5 0 -7 -6 -4 -14 5
-14 13 -13 77 10 9 4 17 10 17 15 0 13 -11 11 -31 -7 -33 -30 -46 5 -16 44 8
11 12 11 18 0 7 -10 9 -8 9 5 0 9 5 26 12 36 9 15 17 17 50 9 22 -4 43 -6 47
-4 14 9 35 -13 36 -36 0 -17 5 -22 18 -20 15 3 17 -1 12 -17 -3 -10 -1 -22 5
-26 6 -3 8 -11 5 -16 -7 -10 24 -1 43 14 8 7 12 5 12 -7 0 -9 -4 -16 -10 -16
-5 0 -10 -5 -10 -11 0 -5 4 -7 10 -4 5 3 18 1 29 -4 24 -14 71 7 71 32 0 17
23 48 35 47 21 -1 -6 51 -31 60 -24 10 -33 30 -13 30 20 0 69 -34 69 -48 0 -7
6 -12 13 -11 26 3 37 -2 37 -16 0 -8 6 -15 14 -15 7 0 21 -11 32 -25 13 -17
21 -21 31 -14 8 8 22 6 45 -7 18 -9 40 -20 48 -24 19 -10 15 -49 -8 -66 -23
-18 -29 -17 -35 6 -3 14 -14 20 -32 20 -33 0 -25 -14 21 -36 41 -20 73 -79 66
-125 -4 -27 -7 -29 -33 -24 -22 5 -29 3 -29 -9 0 -10 6 -13 15 -10 23 9 19
-29 -5 -44 -11 -7 -21 -20 -21 -30 -1 -9 -5 -3 -9 13 -6 24 -8 26 -9 8 -1 -25
-21 -32 -21 -8 0 8 -9 15 -20 15 -15 0 -20 7 -20 25 0 14 -4 25 -10 25 -5 0
-10 -5 -10 -11 0 -5 -5 -7 -10 -4 -11 7 -28 -8 -47 -43 -16 -27 -17 -40 -2
-25 23 23 101 -6 92 -34 -2 -6 10 -17 27 -24 16 -8 30 -18 30 -22 0 -5 -4 -5
-10 -2 -5 3 -10 2 -10 -3 0 -31 102 -16 115 17 8 21 -3 27 -25 13 -12 -7 -20
-8 -20 -2 0 5 4 10 9 10 5 0 13 9 16 21 5 15 14 19 32 17 38 -4 37 14 -2 42
-19 14 -35 29 -35 33 0 17 35 19 80 5 34 -11 52 -12 59 -5 7 7 14 7 23 0 21
-16 50 -24 42 -12 -4 8 0 7 15 0 12 -7 26 -9 31 -6 6 3 10 1 10 -5 0 -6 4 -9
9 -5 5 3 -1 17 -15 32 -16 17 -21 29 -13 33 10 7 -26 24 -44 21 -4 -1 -12 10
-17 24 -5 14 -16 25 -25 25 -19 0 -20 -19 0 -26 8 -4 12 -10 9 -15 -3 -5 2
-12 10 -15 9 -3 16 -13 16 -21 0 -8 -6 -13 -12 -10 -7 2 -22 1 -33 -3 -24 -8
-98 30 -103 53 -4 18 26 17 37 -1 4 -7 11 -4 20 10 12 19 11 20 -4 14 -28 -10
-55 21 -55 65 0 33 2 37 23 32 18 -5 20 -3 10 8 -7 7 -13 21 -13 30 0 15 -33
44 -70 61 -11 5 -11 7 -2 7 7 1 10 6 7 11 -4 6 -16 8 -27 4 -21 -6 -78 13 -78
27 0 5 -11 14 -25 19 -35 13 -42 37 -16 59 20 17 20 19 4 26 -11 5 -14 9 -6
12 7 2 9 11 6 20 -5 13 -9 12 -23 -7 -18 -24 -87 -53 -95 -40 -3 5 1 10 7 13
10 3 9 9 -3 23 -9 10 -19 27 -22 36 -4 11 -12 15 -22 12 -10 -4 -15 0 -15 10
0 20 -23 21 -39 2 -9 -11 -9 -15 1 -19 7 -3 -2 -6 -21 -6 -25 -1 -32 -5 -28
-16 9 -21 -9 -28 -32 -13 -14 9 -19 19 -15 35 5 19 2 23 -19 23 -14 0 -29 5
-33 11 -10 17 16 30 56 28 19 -1 43 2 54 6 12 5 21 3 27 -6 5 -9 27 -14 58
-15 27 -1 61 -4 75 -8 32 -8 33 0 4 25 -13 10 -17 18 -10 19 20 0 13 14 -14
27 -29 13 -44 9 -44 -11 0 -8 -13 -12 -35 -12 -30 1 -34 4 -29 21 9 28 12 29
29 15 17 -15 45 -7 45 13 0 10 -21 19 -61 26 -34 7 -67 15 -75 18 -8 3 -14 -1
-14 -10 0 -9 -13 -18 -31 -22 -21 -5 -29 -11 -25 -21 10 -27 -41 -37 -85 -17
-43 19 -53 39 -15 29 14 -3 28 -2 31 4 3 5 15 10 26 10 18 0 25 11 13 23 -3 3
-19 1 -35 -5 -28 -10 -33 -7 -69 33 -22 24 -40 51 -41 59 0 10 -2 11 -6 3 -6
-15 -53 -18 -53 -3 0 6 -10 10 -22 10 -22 -1 -22 -1 5 -24 32 -26 28 -50 -9
-52 -33 -2 -41 -11 -25 -27 11 -9 14 -9 18 0 6 16 43 -6 43 -24 0 -7 6 -13 13
-13 6 0 4 -5 -6 -11 -9 -5 -22 -7 -27 -4 -19 12 -31 -5 -19 -28 7 -12 13 -24
15 -25 4 -5 66 40 80 58 10 12 12 11 12 -10 0 -14 2 -34 4 -45 2 -13 -6 -23
-24 -33 -47 -23 -35 -32 45 -33 9 0 15 -4 12 -9 -3 -5 10 -12 30 -16 30 -5 33
-9 24 -25 -12 -23 -23 -24 -43 -4 -18 19 -26 19 -26 0 0 -7 8 -19 18 -24 16
-10 16 -10 -2 -11 -12 0 -16 -5 -12 -16 4 -12 1 -14 -14 -9 -12 4 -31 -1 -48
-12 -26 -18 -28 -18 -62 -1 -20 10 -28 18 -17 18 19 0 21 8 7 30 -8 12 -10 12
-16 -3 -9 -25 -33 -21 -44 9 -8 21 -13 24 -24 15 -11 -9 -15 -7 -19 11 -5 18
-9 20 -19 10 -17 -17 -31 -15 -25 2 4 11 1 13 -10 9 -20 -8 -44 22 -36 45 4
14 2 14 -11 -2 -19 -23 -39 -11 -32 19 4 14 1 25 -7 28 -7 4 -6 6 4 6 9 1 20
8 23 17 3 8 10 12 16 9 6 -4 9 3 7 16 -2 20 3 23 41 25 24 1 46 5 50 9 11 11
-22 24 -46 18 -17 -4 -21 -2 -17 9 4 9 -5 29 -20 46 -17 21 -21 32 -13 34 10
4 8 9 -4 21 -22 22 -27 21 -21 -3 3 -11 1 -20 -5 -20 -6 0 -18 -3 -28 -7 -11
-4 -15 -3 -11 4 8 13 -17 36 -28 25 -5 -4 -5 -2 -1 5 4 7 13 10 21 6 8 -3 15
-1 15 5 0 8 -44 22 -70 22 -4 0 -6 -12 -4 -28 2 -15 1 -21 -2 -15 -3 8 -15 11
-29 7 -12 -3 -26 -1 -29 5 -4 6 -2 11 4 11 7 0 9 8 5 22 -6 16 -4 20 8 15 26
-10 31 26 7 45 -17 14 -18 18 -7 18 9 0 19 -4 22 -10 3 -5 14 -10 24 -10 10 0
24 -7 31 -15 7 -8 17 -12 23 -8 7 4 27 6 45 4 25 -2 33 1 30 11 -3 7 -15 12
-27 10 -13 -2 -20 1 -19 10 2 7 -8 14 -22 16 -37 6 -68 52 -34 52 8 0 13 4 10
9 -3 5 1 12 10 15 10 4 14 12 10 22 -4 12 -2 15 9 10 8 -3 15 -1 15 4 0 6 4
10 10 10 5 0 7 -7 3 -16 -4 -11 1 -22 12 -30 20 -15 12 -19 -27 -15 -10 1 -18
-4 -18 -13 0 -9 8 -15 18 -14 42 3 92 -3 89 -11 -1 -5 7 -17 18 -25 18 -14 18
-15 2 -16 -9 0 -25 9 -34 20 -11 12 -30 20 -48 20 l-30 -1 24 -19 c13 -11 32
-20 43 -20 17 0 18 -3 9 -14 -10 -12 -4 -18 35 -35 42 -19 49 -20 64 -6 22 20
29 19 23 -3 -4 -16 0 -18 26 -14 21 3 31 0 31 -9 0 -10 3 -10 12 -1 7 7 29 12
50 12 31 0 36 -3 31 -17 -5 -12 -2 -15 10 -10 10 4 20 0 26 -10 8 -14 12 -15
25 -4 18 15 22 41 6 41 -5 0 -10 5 -10 10 0 15 36 12 50 -5 7 -8 9 -15 4 -15
-5 0 0 -7 10 -15 18 -14 18 -16 3 -33 -22 -24 -22 -46 -1 -38 9 3 20 6 25 6 6
0 8 8 4 19 -5 16 0 19 30 23 37 4 67 -16 58 -39 -6 -16 9 -17 25 -1 16 16 15
28 -3 28 -8 0 -15 6 -15 14 0 9 7 12 19 9 10 -3 21 2 24 10 4 11 0 13 -14 10
-10 -3 -19 0 -19 6 0 8 -10 7 -30 -4 -35 -18 -51 -19 -74 -2 -25 18 -11 47 23
47 15 0 32 -5 39 -12 16 -16 45 9 39 34 -3 10 -1 20 3 23 14 9 -20 65 -40 65
-10 0 -21 4 -24 8 -2 4 -19 8 -38 9 -32 2 -32 2 -8 -9 14 -6 31 -10 38 -9 6 1
12 -5 12 -14 0 -8 3 -14 8 -14 25 4 33 -2 26 -23 -10 -34 -25 -44 -56 -40 -22
3 -28 10 -28 28 0 13 -4 24 -10 24 -5 0 -10 9 -10 20 0 15 -7 20 -25 20 -16 0
-25 -6 -25 -15 0 -10 -10 -15 -30 -15 -32 0 -43 -26 -15 -36 8 -4 15 -17 15
-30 0 -25 -17 -30 -55 -15 -11 5 -25 4 -32 -1 -14 -11 -53 -1 -53 14 0 6 8 17
18 25 15 13 15 14 -11 10 -22 -3 -37 4 -74 39 -58 55 -51 58 85 30 77 -16 102
-13 102 11 0 13 3 13 15 3 22 -18 73 4 56 24 -16 19 30 30 64 14 19 -8 34 -9
62 0 45 14 68 0 37 -22 -14 -11 -16 -17 -7 -26 8 -9 14 -7 22 9 13 24 38 27
76 9 28 -13 30 -19 13 -36 -15 -15 -55 -16 -64 0 -5 8 -11 6 -20 -7 -11 -14
-11 -20 1 -31 16 -17 71 -8 79 12 7 18 35 18 42 0 3 -7 21 -22 40 -32 30 -16
34 -23 29 -44 -9 -33 -12 -35 -29 -20 -11 9 -23 9 -43 2 l-28 -10 30 -1 c24
-1 33 -7 42 -31 6 -17 7 -28 2 -24 -5 3 -14 2 -20 -2 -14 -8 61 -43 79 -36 23
8 12 22 -13 16 -43 -11 -29 23 18 44 37 16 50 15 43 -3 -3 -8 2 -19 12 -24 10
-6 12 -11 5 -11 -7 0 -13 -7 -13 -16 0 -11 -5 -14 -17 -9 -13 4 -15 3 -7 -5 6
-6 22 -12 35 -14 13 -1 34 -8 47 -15 12 -7 31 -10 41 -6 20 6 53 -3 47 -14 -3
-4 8 -12 23 -19 28 -13 66 -85 55 -104 -3 -5 2 -8 12 -6 13 2 25 -10 42 -45
16 -32 29 -46 38 -43 8 3 14 0 14 -6 0 -7 5 -6 15 2 23 19 48 -5 34 -32 -12
-23 4 -48 30 -48 9 0 24 -9 34 -20 16 -18 15 -20 -3 -30 -10 -5 -28 -10 -40
-10 -12 0 -18 -4 -15 -10 3 -6 -5 -10 -19 -10 -20 0 -24 4 -20 18 5 14 4 14
-4 3 -7 -10 -7 -21 -1 -33 8 -14 5 -19 -16 -24 -21 -5 -26 -12 -24 -33 2 -14
-2 -35 -9 -46 l-11 -20 -1 20 c-1 18 -2 18 -13 4 -12 -16 -18 -19 -38 -19 -5
0 -7 -5 -4 -11 4 -6 13 -8 21 -5 7 3 16 0 20 -5 3 -6 19 -8 35 -5 21 4 29 2
30 -9 1 -8 2 -21 3 -27 0 -7 10 -14 21 -17 20 -3 20 -3 1 18 -16 18 -17 21 -3
21 9 0 19 -10 23 -22 4 -13 15 -33 24 -45 15 -19 20 -21 29 -9 9 11 6 20 -14
41 -27 30 -32 51 -12 58 6 2 9 8 5 12 -4 4 -14 2 -23 -5 -8 -7 -15 -8 -15 -3
0 5 -11 16 -25 23 -14 7 -25 18 -25 23 0 5 7 4 15 -3 12 -10 20 -9 40 4 33 22
45 13 45 -30 0 -38 21 -54 49 -37 26 16 51 102 57 194 l6 87 -35 26 c-19 14
-44 25 -55 24 -35 -5 -25 17 10 22 43 7 24 19 -42 27 -38 4 -50 3 -50 -8 0
-10 -3 -10 -11 -2 -16 16 -4 43 20 43 10 0 32 7 47 15 l29 16 -40 -6 c-32 -4
-45 -1 -63 15 -26 24 -28 32 -7 24 11 -5 13 -2 9 11 -6 14 -3 16 14 11 11 -4
23 -2 27 4 5 8 -5 11 -31 10 -22 -1 -42 -1 -46 0 -5 2 -13 3 -20 4 -25 2 -17
24 12 29 16 4 30 13 30 21 0 15 -29 30 -39 20 -3 -4 0 -9 7 -11 20 -8 13 -26
-8 -20 -11 3 -20 1 -20 -4 0 -5 -10 -9 -23 -9 -13 0 -27 -4 -33 -10 -5 -5 -15
-5 -23 -1 -9 6 -2 11 24 15 27 5 35 12 33 24 -2 12 -11 16 -31 14 -26 -3 -37
11 -17 23 18 11 11 37 -7 31 -10 -3 -22 -2 -28 2 -19 14 -45 70 -45 99 1 25 2
26 14 11 7 -10 27 -21 44 -24 18 -4 29 -10 26 -15 -3 -5 0 -18 7 -30 10 -20
12 -20 27 -5 15 16 15 18 1 29 -8 7 -18 19 -21 28 -3 8 -24 21 -47 28 -23 6
-41 15 -41 20 0 4 11 18 25 31 30 28 32 50 6 50 -11 0 -28 3 -38 7 -16 6 -16
5 2 -16 l20 -23 -23 -18 c-13 -11 -31 -17 -40 -14 -14 5 -15 4 -2 -5 8 -6 13
-11 10 -11 -37 -6 -70 -6 -61 0 14 8 -28 40 -52 40 -17 0 -40 24 -31 32 3 4
-13 9 -35 13 -31 5 -41 11 -41 26 0 12 -7 19 -19 19 -11 0 -21 9 -24 21 -4 16
-10 19 -28 14 -20 -7 -21 -5 -15 27 5 30 3 36 -20 48 -24 13 -24 15 -8 27 24
18 35 16 27 -3 -5 -13 -2 -15 15 -9 23 7 31 -10 10 -18 -7 -3 0 -6 16 -6 21
-1 27 -5 22 -17 -3 -8 0 -22 8 -30 17 -16 46 -19 46 -4 0 6 8 10 18 10 13 0
14 2 4 9 -10 6 -10 10 3 21 18 15 20 70 3 70 -8 1 -6 6 5 14 9 7 17 18 17 25
0 6 -8 11 -17 11 -10 0 -25 5 -33 10 -13 8 -12 11 4 23 18 13 18 14 -3 20 -11
3 -21 13 -21 22 0 12 -6 16 -20 12 -11 -3 -18 -1 -14 4 3 5 0 9 -6 9 -7 0 -20
10 -30 22 -17 22 -17 23 4 33 22 12 45 -3 24 -16 -15 -10 0 -29 18 -22 11 4
13 15 9 48 -7 44 7 61 38 49 19 -7 42 23 30 39 -13 17 -14 59 -1 51 19 -12 76
-15 83 -5 3 6 14 11 23 11 15 -1 15 -2 -1 -11 -27 -16 -10 -29 39 -29 32 0 44
4 44 15 0 8 11 17 24 21 17 4 23 11 19 21 -4 11 -2 14 8 11 8 -3 13 -13 13
-22 -1 -9 4 -16 12 -16 8 0 11 6 8 15 -4 10 0 15 15 15 12 0 21 6 21 15 0 8 7
15 15 15 9 0 18 7 21 15 4 10 20 15 50 15 24 0 44 5 44 10 0 6 8 10 18 10 10
0 25 11 32 25 7 14 19 25 27 25 7 0 13 5 13 10 0 6 16 10 35 10 24 0 35 5 35
15 0 20 -9 19 -72 -6 -50 -20 -144 -48 -233 -70 -22 -5 -96 -27 -165 -49 -69
-21 -138 -41 -153 -45 -15 -3 -25 -10 -22 -15 3 -6 2 -10 -4 -10 -5 0 -12 4
-15 9 -6 10 -54 2 -61 -10 -3 -4 -12 -6 -20 -2 -8 3 -15 0 -15 -5 0 -6 6 -12
13 -15 6 -2 -1 -2 -18 1 -25 4 -28 2 -17 -10 6 -8 9 -17 6 -21 -9 -8 -35 4
-29 13 11 18 -14 18 -73 0 -34 -11 -82 -19 -106 -18 -36 2 -49 -3 -71 -24 -18
-18 -22 -28 -13 -31 7 -3 3 -4 -9 -4 -12 1 -19 5 -17 9 3 4 0 8 -5 8 -21 0
-11 21 14 30 14 5 25 16 25 24 0 21 21 31 31 15 4 -7 11 -10 15 -6 4 4 -3 15
-16 24 -47 33 -90 75 -90 89 0 9 11 14 30 14 17 0 30 4 30 10 0 5 7 7 15 4 8
-4 15 -2 15 4 0 15 -28 23 -34 9 -3 -9 -8 -8 -16 3 -10 13 -11 12 -6 -3 8 -25
-13 -17 -33 12 -15 23 -14 23 7 17 16 -6 22 -3 22 8 0 20 1 20 -56 -4 -37 -16
-49 -18 -56 -8 -4 7 -8 16 -8 21 0 4 -5 7 -11 7 -6 0 -9 -7 -6 -15 6 -15 -7
-28 -32 -32 -8 -1 -25 -4 -38 -8 -13 -3 -23 -1 -23 5 0 13 -27 13 -35 -1 -4
-6 2 -13 14 -16 12 -3 21 -9 21 -14 0 -5 12 -7 28 -4 23 6 25 4 12 -7 -15 -12
-18 -54 -6 -85 6 -15 42 -18 51 -3 4 6 15 8 26 5 11 -4 19 -2 19 4 0 6 -9 11
-20 11 -13 0 -18 5 -13 16 4 10 -1 17 -14 20 -15 4 -19 12 -15 30 2 13 10 24
17 24 7 0 15 4 17 9 5 12 78 24 78 12 0 -5 -6 -11 -12 -14 -7 -2 1 -2 17 0
l30 4 -34 -31 c-24 -23 -36 -29 -44 -21 -19 19 -27 12 -16 -13 15 -32 59 -42
59 -12 0 20 0 20 16 -2 8 -12 21 -22 28 -22 8 0 19 -7 26 -15 9 -11 9 -17 -2
-28 -7 -7 -19 -12 -26 -9 -6 2 -12 -3 -12 -12 0 -18 -33 -29 -70 -23 -19 3
-24 10 -23 26 2 13 -3 21 -12 21 -8 0 -15 -6 -15 -14 0 -21 -20 -30 -33 -17
-17 17 -29 13 -23 -6 9 -28 -37 -45 -77 -28 -33 13 -69 7 -82 -15 -6 -9 -9 -9
-15 0 -11 17 -60 4 -60 -15 0 -8 -4 -15 -9 -15 -17 0 -7 43 11 48 34 8 21 31
-14 25 -18 -3 -47 -6 -64 -7 -16 0 -41 -8 -54 -17 l-24 -16 29 -14 c27 -13 37
-38 12 -31 -6 2 -4 -4 3 -13 8 -9 20 -13 33 -9 19 6 19 6 1 -19 -17 -23 -42
-28 -29 -6 4 5 1 9 -5 9 -7 0 -14 -9 -17 -20 -5 -19 -33 -29 -33 -12 0 5 -9
19 -20 32 -24 28 -21 44 8 48 28 4 29 22 1 22 -15 0 -19 5 -15 15 4 11 -1 15
-19 15 -14 0 -25 5 -25 10 0 6 -6 10 -14 10 -19 0 -29 30 -15 46 22 27 154 7
142 -21 -3 -8 0 -15 6 -15 7 0 15 8 18 17 4 9 15 25 25 35 19 19 20 19 64 -2
24 -12 44 -29 44 -38 0 -8 2 -13 5 -10 10 9 -8 68 -20 68 -7 0 -15 6 -18 14
-4 9 -14 12 -25 9 -28 -7 -36 12 -19 46 14 28 14 29 -13 35 -17 3 -31 14 -35
26 -6 20 -25 28 -25 10 0 -5 5 -10 10 -10 6 0 10 -7 10 -15 0 -8 -4 -15 -10
-15 -5 0 -10 5 -10 10 0 17 -28 11 -39 -7 -6 -10 -11 -13 -11 -6 0 7 11 24 25
39 17 18 22 30 15 34 -8 5 -6 12 5 24 11 11 15 25 11 41 -5 19 -2 25 10 25 16
0 15 2 -1 20 -14 16 -21 17 -32 8 -10 -8 -11 -13 -3 -18 7 -4 8 -18 4 -34 -5
-22 -9 -24 -21 -14 -13 10 -14 6 -8 -34 6 -39 4 -46 -12 -50 -23 -6 -79 37
-62 48 7 4 16 -1 21 -10 11 -20 48 -21 48 -2 0 20 -51 51 -77 47 -16 -2 -23 3
-23 14 0 8 -7 18 -15 21 -8 4 -12 10 -9 15 3 5 -3 9 -14 9 -23 0 -44 59 -30
84 13 24 -1 35 -17 13 -21 -29 -39 5 -40 75 0 42 -5 63 -16 71 -9 7 -21 22
-28 35 -6 12 -18 22 -26 22 -8 0 -15 5 -15 10 0 6 -7 10 -15 10 -17 0 -20 16
-5 25 15 9 -22 45 -47 45 -13 0 -23 -4 -23 -10 0 -5 -11 -10 -25 -10 -17 0
-25 6 -25 17 0 9 -20 35 -45 59 -25 23 -45 47 -45 53 0 16 26 13 40 -4 7 -9
20 -13 27 -11 10 4 13 -1 11 -16 -2 -11 3 -23 10 -25 6 -3 12 2 12 10 0 8 7
17 15 21 22 8 7 39 -17 33 -12 -3 -23 2 -31 14 -14 23 -55 25 -63 4 -4 -8 -14
-15 -24 -15 -14 0 -17 5 -12 22 4 18 2 20 -16 16 -16 -4 -22 0 -27 19 -3 13
-19 43 -35 65 -32 44 -37 64 -17 71 6 2 8 8 4 13 -4 5 -12 2 -17 -6 -7 -12
-12 -11 -30 5 -19 17 -20 21 -6 31 18 13 11 25 -10 17 -8 -3 -14 1 -14 11 0 9
5 16 10 16 6 0 10 8 10 18 -1 16 -1 16 -14 0 -16 -22 -30 -23 -46 -3 -7 8 -22
15 -34 16 -16 1 -15 3 8 9 16 5 34 6 40 3 6 -4 5 1 -3 11 -8 9 -17 13 -20 9
-3 -5 -18 -9 -34 -10 -29 -1 -60 -20 -52 -33 5 -8 -82 -7 -91 2 -3 4 -34 -11
-68 -31 l-62 -38 -13 31 c-7 17 -16 38 -20 46 -5 9 -12 36 -15 60 -4 25 -14
59 -21 75 -7 17 -17 42 -20 58 -7 25 -4 29 31 43 22 9 66 28 99 43 33 16 78
36 100 45 22 9 48 21 57 26 29 16 38 12 38 -19 0 -25 -5 -30 -33 -35 -42 -8
-73 -42 -56 -62 15 -19 27 -18 25 2 0 9 4 19 11 21 7 3 10 -3 6 -15 -7 -27 22
-35 58 -16 22 11 28 20 24 34 -3 10 -1 21 5 25 6 4 10 -7 10 -28 0 -22 7 -40
22 -53 21 -18 21 -18 15 0 -5 13 -3 17 7 13 22 -9 30 25 10 40 -10 7 -21 13
-26 13 -4 0 -8 8 -8 18 1 15 2 15 13 2 15 -20 75 -45 84 -36 4 3 1 12 -5 18
-7 7 -12 24 -12 39 0 23 3 26 25 21 27 -5 35 -22 10 -22 -11 0 -14 -11 -12
-47 1 -27 7 -51 12 -55 7 -5 6 -11 -1 -15 -19 -14 -35 -51 -24 -58 6 -3 13 1
16 9 4 11 14 14 30 10 15 -4 24 -2 24 5 0 6 -5 11 -12 11 -9 0 -9 3 -1 11 9 9
20 9 44 0 43 -15 47 -14 54 8 3 10 24 31 47 46 40 26 41 28 22 42 -18 14 -17
14 14 8 26 -5 32 -3 32 10 0 9 -4 14 -9 11 -4 -3 -16 3 -26 14 -17 19 -17 20
1 20 11 0 25 -5 31 -11 8 -8 13 -8 17 0 10 16 26 13 26 -4 0 -8 3 -15 8 -15
12 1 38 24 44 41 4 11 15 15 37 11 25 -3 31 -1 31 13 0 15 3 15 20 -5 11 -13
20 -27 20 -32 0 -4 5 -8 10 -8 6 0 10 7 10 15 0 8 4 15 9 15 15 0 23 -18 11
-25 -24 -15 -6 -26 43 -25 28 0 69 -2 90 -6 35 -6 37 -5 37 20 0 18 5 26 17
26 9 0 13 -3 10 -7 -4 -3 -2 -12 4 -20 9 -10 8 -13 0 -13 -7 0 -9 -4 -6 -10 3
-5 -1 -10 -10 -10 -9 0 -15 -7 -13 -17 2 -13 -5 -16 -37 -17 -29 -1 -40 -5
-40 -16 0 -8 -4 -18 -10 -22 -5 -4 13 -8 40 -9 28 0 66 -6 85 -13 28 -11 35
-18 33 -38 -1 -24 0 -24 53 -20 50 4 54 3 54 -17 0 -13 6 -21 17 -21 23 0 14
-6 -22 -14 -22 -5 -26 -4 -15 4 12 8 10 10 -10 10 -30 0 -129 -60 -130 -78 0
-10 -8 -12 -29 -7 -17 3 -43 0 -63 -8 -18 -8 -56 -17 -83 -21 -28 -5 -55 -12
-62 -18 -7 -5 -16 -7 -21 -4 -11 7 -38 -22 -29 -30 9 -9 147 17 193 36 22 10
67 23 98 30 61 13 147 47 157 62 4 6 16 7 28 3 21 -6 22 -7 4 -21 -17 -12 -17
-13 0 -14 9 0 17 -5 17 -10 0 -12 36 5 59 27 15 16 42 14 48 -4 2 -6 -4 -13
-14 -16 -13 -3 -11 -5 7 -6 14 0 38 6 54 14 35 19 33 19 32 -7 -1 -15 6 -24
21 -27 13 -3 31 -13 41 -22 13 -11 24 -13 35 -8 10 6 18 5 22 -1 4 -6 15 -8
26 -5 11 4 19 2 19 -5 0 -6 -4 -9 -9 -5 -6 3 -13 -1 -18 -8 -4 -8 -21 -13 -38
-13 -23 1 -32 -5 -43 -26 -7 -16 -18 -28 -25 -29 -25 -1 -46 -7 -64 -18 -16
-9 -15 -10 9 -11 15 0 29 4 32 9 3 5 14 7 25 4 10 -3 32 2 48 11 23 11 39 13
64 6 19 -5 50 -11 69 -13 19 -3 43 -8 53 -12 9 -4 26 -5 37 -2 11 3 23 1 26
-4 3 -5 16 -9 29 -9 26 0 41 -15 25 -25 -6 -4 -8 -21 -4 -40 3 -19 1 -35 -5
-39 -16 -10 -13 -26 4 -26 8 0 15 5 15 10 0 6 11 10 24 10 14 0 28 5 31 10 11
18 69 10 119 -16 26 -14 46 -22 43 -17 -3 5 5 13 18 19 19 9 22 9 18 -2 -3 -8
-9 -14 -15 -14 -5 0 -6 -5 -3 -11 4 -6 14 -8 22 -5 11 4 13 1 8 -14 -5 -15 -2
-20 12 -20 18 -1 76 -29 60 -30 -4 0 3 -10 17 -22 30 -28 43 -80 23 -99 -7 -8
-16 -22 -20 -31 -4 -12 -17 -18 -39 -18 -24 0 -29 -3 -20 -12 9 -9 18 -9 37 0
15 7 30 10 34 8 4 -3 27 0 51 5 24 5 50 7 59 3 9 -5 54 -8 101 -8 65 -1 92 -5
114 -19 21 -14 30 -16 41 -7 26 21 36 5 13 -20 -24 -25 -25 -25 30 -3 6 3 12
0 12 -6 0 -6 7 -11 15 -11 8 0 15 5 15 11 0 5 5 7 10 4 6 -4 8 -15 5 -24 -8
-28 18 -45 44 -29 22 14 27 33 12 43 -6 3 -6 16 0 34 7 20 7 42 0 69 -6 22 -9
47 -5 55 3 9 1 25 -6 36 -6 12 -7 21 -2 21 4 0 9 8 10 18 1 9 4 33 8 53 3 20
1 45 -4 56 -6 11 -7 35 -2 63 7 35 6 47 -6 56 -8 7 -12 19 -8 29 4 10 1 21 -7
26 -11 7 -11 9 4 9 20 0 22 11 5 28 -9 9 -8 12 5 12 23 0 23 45 0 60 -17 11
-17 11 0 6 12 -4 17 0 17 13 0 11 -5 21 -11 23 -9 3 -9 9 0 25 15 29 13 92 -3
123 -12 21 -12 28 2 52 13 23 14 36 6 78 -6 27 -7 55 -3 62 11 18 10 915 -1
963 -5 22 -5 44 0 50 5 6 9 274 9 595 -1 556 -2 589 -21 660 -41 154 -138 281
-248 329 -30 13 -72 32 -93 42 -31 15 -62 19 -148 19 -108 0 -109 0 -114 -25z
m-3037 -2195 c-7 -11 -16 -20 -19 -20 -4 0 -9 -9 -12 -21 -4 -15 -11 -19 -25
-14 -11 3 -24 1 -27 -6 -9 -14 13 -29 32 -22 7 3 13 0 13 -6 0 -6 8 -11 18
-12 13 0 13 -2 -4 -9 -12 -5 -25 -14 -29 -20 -9 -14 -45 16 -45 37 0 10 -5 11
-18 4 -13 -7 -22 -7 -29 0 -6 6 -19 6 -36 0 -53 -20 -217 -22 -217 -2 0 4 21
22 46 39 32 23 50 30 61 24 11 -6 12 -11 4 -16 -6 -4 -11 -11 -11 -16 0 -8 12
-7 63 6 12 3 45 8 73 11 28 3 75 18 105 33 68 34 72 35 57 10z m2724 -55 c-1
-21 3 -33 8 -30 6 3 10 13 10 21 0 8 5 14 10 14 6 0 10 -4 10 -9 0 -11 39 -3
58 12 7 6 30 12 50 14 20 2 41 8 48 14 17 14 76 20 90 8 7 -6 24 -4 49 7 28
11 40 12 49 4 6 -6 7 -11 1 -10 -18 4 -55 -12 -55 -22 0 -6 9 -8 21 -5 13 3
19 1 16 -6 -4 -15 -47 -22 -47 -9 0 6 -16 8 -37 6 -21 -3 -54 -6 -73 -7 -19
-1 -44 -7 -54 -13 -19 -11 -18 -12 3 -24 12 -6 47 -11 77 -11 29 0 56 -4 59
-9 10 -16 -14 -21 -49 -12 -19 6 -38 6 -43 2 -4 -4 -41 -10 -82 -12 -54 -3
-76 -8 -86 -21 -6 -9 -14 -14 -18 -11 -3 3 -14 0 -26 -7 -23 -15 -34 -9 -25
15 3 9 17 16 30 16 39 0 27 19 -16 26 -26 4 -40 12 -40 21 0 10 6 13 16 9 24
-9 35 3 24 25 -6 10 -21 19 -33 19 -22 1 -22 1 2 14 21 12 22 14 5 20 -15 6
-16 9 -5 16 23 14 54 -24 53 -65z m-309 53 c15 0 27 -3 27 -8 0 -6 7 -10 15
-10 8 0 15 4 15 9 0 12 48 23 62 15 6 -4 -1 -12 -18 -20 l-29 -13 27 5 c15 3
33 2 40 -3 8 -5 -3 -10 -32 -13 -53 -6 -52 -27 1 -22 42 4 59 -19 34 -45 -9
-9 -13 -23 -10 -34 7 -21 3 -23 -23 -10 -36 18 -89 33 -127 37 -22 2 -34 1
-27 -2 20 -9 14 -22 -10 -22 -34 1 -128 -25 -128 -35 0 -5 -15 -8 -32 -7 -18
1 -44 1 -58 0 -23 -1 -24 -2 -5 -10 14 -7 8 -8 -19 -3 -27 4 -37 2 -32 -5 4
-7 -5 -9 -29 -5 -34 5 -35 5 -26 -18 8 -22 6 -24 -19 -24 -22 0 -26 3 -18 13
8 9 5 12 -11 12 -18 0 -20 -5 -15 -32 4 -28 3 -30 -5 -10 -12 26 -17 27 -65 7
-20 -9 -36 -22 -36 -31 0 -10 -6 -14 -15 -10 -21 8 -19 0 11 -40 22 -29 24
-34 9 -34 -9 0 -19 9 -22 20 -3 11 -11 20 -17 20 -8 0 -11 11 -8 30 3 18 0 30
-7 30 -6 0 -11 4 -11 8 0 10 60 32 88 32 24 0 29 19 10 38 -16 16 3 15 27 -2
17 -11 28 -11 75 5 30 10 69 19 85 19 26 1 27 3 10 10 -18 7 -16 9 12 15 17 4
34 13 37 21 3 8 19 14 36 14 16 0 30 5 30 10 0 6 9 10 21 10 33 0 129 50 129
67 0 9 -6 13 -15 9 -8 -3 -15 -2 -15 3 0 15 14 21 34 14 12 -4 33 -6 49 -5z
m-2787 -167 c-4 -5 3 -7 14 -4 13 4 20 0 20 -10 0 -8 7 -20 15 -27 13 -11 21
-9 46 9 34 25 63 24 131 -6 34 -15 53 -43 28 -43 -5 0 -10 -9 -10 -20 0 -24
-28 -40 -69 -40 -36 0 -42 21 -12 42 30 21 36 55 11 68 -25 14 -40 5 -40 -22
0 -21 0 -21 -22 -2 -21 19 -21 19 -16 -3 4 -13 2 -26 -3 -29 -13 -8 -11 -58 3
-72 17 -17 2 -15 -27 4 -14 9 -25 22 -25 29 0 7 -6 16 -12 18 -7 3 2 8 20 12
29 7 47 35 22 35 -5 0 -10 -4 -10 -9 0 -4 -11 -6 -25 -3 -21 4 -25 1 -25 -21
0 -16 -7 -26 -20 -30 -12 -3 -20 -14 -20 -27 0 -18 -3 -20 -13 -11 -8 6 -37
12 -65 13 -42 2 -52 6 -52 20 0 10 5 18 10 18 6 0 10 -4 10 -10 0 -5 4 -10 10
-10 5 0 8 22 7 49 -3 46 -2 49 15 40 13 -7 25 -6 41 6 12 8 21 18 19 22 -2 4
5 10 15 14 26 11 35 10 29 0z m-641 -331 c3 -6 -3 -23 -14 -39 -16 -23 -18
-30 -7 -34 7 -3 16 -15 19 -26 4 -16 0 -21 -15 -21 -11 0 -35 -7 -54 -16 -19
-9 -37 -14 -40 -11 -5 5 -44 -28 -44 -38 0 -2 12 -2 28 1 28 6 65 9 142 14 25
1 38 4 29 7 -22 6 -19 87 4 91 9 2 21 -6 27 -17 8 -17 8 -21 -3 -21 -21 0 -8
-52 14 -57 11 -3 19 -10 19 -15 0 -5 -9 -6 -20 -3 -15 5 -20 2 -20 -11 0 -16
-1 -16 -19 0 -11 10 -21 13 -25 7 -3 -5 1 -11 11 -13 15 -3 15 -4 0 -19 -9 -9
-14 -19 -11 -22 3 -3 -11 -10 -32 -17 -26 -9 -33 -15 -23 -21 10 -6 6 -9 -13
-9 -18 0 -28 -5 -28 -15 0 -9 -12 -18 -30 -22 -17 -3 -28 -8 -25 -11 10 -10
-28 -42 -51 -42 -13 0 -25 -4 -28 -8 -3 -5 -28 -8 -56 -6 -27 1 -50 -2 -50 -7
0 -5 26 -9 57 -9 55 0 56 -1 35 -15 -18 -13 -29 -14 -63 -5 -22 6 -46 7 -52 3
-7 -5 -32 -6 -57 -2 -37 5 -40 6 -15 9 17 2 40 2 53 2 26 -1 27 4 7 25 -13 13
-18 13 -32 2 -9 -8 -31 -14 -49 -14 -45 0 -54 39 -17 73 28 25 19 50 -12 38
-13 -5 -15 -9 -6 -20 9 -10 8 -15 -3 -19 -8 -3 -23 -22 -33 -41 -14 -27 -21
-33 -33 -26 -13 9 -13 11 0 20 9 6 10 10 3 10 -6 0 -19 -10 -28 -22 -13 -19
-17 -20 -24 -9 -10 16 -4 41 10 41 5 0 9 8 9 18 -1 16 -1 16 -11 0 -6 -10 -16
-15 -26 -11 -14 5 -15 1 -10 -28 6 -34 6 -34 -8 -9 -14 24 -16 23 -19 -9 -2
-23 -44 -20 -52 3 -5 17 -8 14 -14 -19 -8 -47 -11 -45 -13 11 -2 41 -1 42 46
60 26 10 47 22 47 27 0 5 10 6 23 3 12 -3 16 -3 10 0 -22 10 -14 22 18 29 20
5 34 3 39 -5 5 -8 9 -4 13 10 4 16 11 21 22 16 13 -5 15 -2 9 16 -5 16 -3 20
9 15 9 -3 14 0 13 11 -1 11 10 18 36 22 20 4 43 12 51 18 8 7 18 8 22 4 5 -4
5 -1 1 5 -5 8 3 17 21 25 15 7 33 20 40 28 7 8 13 11 13 7 0 -5 7 -1 16 7 8 9
23 16 31 16 9 0 13 3 10 7 -4 3 9 17 29 31 19 13 38 21 41 18 4 -3 13 0 21 7
12 9 75 28 124 36 4 0 10 -4 13 -9z m1645 -130 c-10 -18 -8 -24 7 -35 10 -7
15 -17 11 -21 -4 -4 -3 -13 3 -21 9 -9 8 -13 0 -13 -6 0 -11 -5 -11 -11 0 -8
11 -9 31 -5 25 5 30 3 25 -9 -7 -18 39 -69 53 -60 17 10 13 36 -5 33 -19 -3
-42 27 -31 39 5 4 12 1 17 -7 7 -12 12 -12 22 -2 9 9 9 12 -5 12 -19 0 -23 25
-6 35 6 4 8 14 5 22 -4 9 -1 13 6 10 7 -2 13 -15 13 -28 0 -13 3 -29 8 -36 4
-6 4 -18 1 -27 -3 -9 -1 -16 5 -16 6 0 11 -9 11 -21 0 -11 -4 -18 -10 -14 -5
3 -18 -3 -29 -14 -16 -16 -19 -27 -13 -60 7 -40 7 -40 19 -15 9 20 9 26 -3 31
-8 3 -14 9 -14 14 0 6 8 5 20 -1 15 -8 18 -17 13 -43 -9 -48 -43 -61 -43 -16
0 12 -10 23 -26 29 -33 13 -57 13 -49 0 3 -5 -1 -10 -9 -10 -9 0 -16 -8 -16
-19 0 -14 5 -18 20 -14 10 3 18 10 17 17 -1 6 8 10 22 8 31 -3 39 -11 22 -21
-11 -7 -11 -13 3 -32 20 -29 21 -29 39 -5 8 11 17 15 20 9 4 -6 -4 -20 -17
-32 l-24 -23 -29 29 c-37 38 -73 41 -73 7 0 -14 7 -27 15 -30 14 -6 13 -8 -2
-19 -17 -12 -16 -14 10 -20 27 -7 33 -16 20 -28 -3 -4 -11 -3 -18 3 -7 6 -21
4 -40 -6 -34 -18 -40 -13 -46 36 -5 39 1 52 21 47 22 -6 29 17 8 27 -10 5 -10
7 0 12 19 9 14 24 -8 24 -11 0 -20 -5 -20 -12 0 -26 -15 6 -17 35 -2 45 -1 44
-19 61 -14 15 -14 16 0 16 9 0 16 4 16 10 0 5 7 7 15 4 8 -4 12 -10 9 -15 -3
-5 -10 -6 -16 -3 -6 4 -9 3 -6 -2 2 -5 13 -27 24 -49 18 -39 19 -39 22 -12 3
21 9 27 28 27 13 0 24 5 24 10 0 6 -14 10 -30 10 -25 0 -29 3 -22 16 13 23 3
66 -14 60 -8 -3 -14 1 -14 8 0 8 5 16 12 18 7 3 6 7 -5 11 -11 4 -17 1 -17 -8
0 -9 -14 -24 -31 -34 -31 -19 -75 -19 -112 0 -27 15 -4 49 33 49 16 0 32 5 35
10 4 6 16 8 27 4 11 -3 18 -2 15 3 -3 5 14 21 39 37 24 15 42 31 39 36 -3 4 2
10 10 14 8 3 16 13 16 23 1 16 2 16 6 1 2 -9 -1 -27 -7 -38z m-2380 -286 c0
-21 -4 -33 -10 -29 -6 4 -8 11 -5 16 4 5 -1 9 -10 9 -12 0 -15 -6 -10 -22 5
-17 4 -19 -3 -9 -9 12 -16 11 -48 -4 -20 -9 -48 -17 -61 -17 -14 0 -30 -9 -36
-19 -7 -11 -18 -19 -26 -19 -7 0 -28 -9 -46 -20 -19 -11 -37 -20 -42 -19 -14
4 -63 -20 -63 -30 0 -5 -13 -14 -30 -20 -16 -5 -30 -14 -30 -20 0 -6 -17 -13
-37 -16 -21 -4 -51 -11 -66 -17 -48 -18 -40 -2 12 25 35 19 51 23 54 14 3 -8
11 -4 22 11 11 15 23 21 33 17 9 -3 14 -3 10 0 -10 10 24 38 88 70 32 17 63
36 67 43 12 18 75 42 92 35 9 -3 21 -1 28 5 6 5 33 13 60 16 31 5 47 12 47 22
0 8 2 14 5 14 3 0 5 -16 5 -36z m2086 4 c4 -13 2 -24 -5 -26 -6 -2 -11 -10
-11 -18 0 -8 -4 -14 -10 -14 -5 0 -10 -5 -10 -10 0 -12 48 -3 68 13 8 6 12 6
12 -1 0 -6 -16 -19 -35 -28 -19 -9 -35 -20 -35 -25 0 -5 -9 -9 -20 -9 -11 0
-20 6 -20 14 0 13 -34 14 -88 1 -13 -3 -31 0 -39 7 -12 10 -17 9 -27 -2 -14
-18 -46 -25 -46 -10 0 6 -4 8 -10 5 -5 -3 -10 -1 -10 5 0 7 8 9 20 5 11 -3 20
-2 20 4 0 5 8 17 17 27 17 16 16 17 -9 12 -15 -3 -25 -1 -22 3 3 5 16 9 30 9
13 0 24 4 24 9 0 16 52 5 61 -12 7 -11 3 -22 -13 -36 -21 -20 -20 -20 33 1 68
28 64 25 50 42 -14 17 1 31 24 22 8 -3 14 -2 14 2 -6 37 26 45 37 10z m-928
-36 c2 -7 -5 -12 -17 -12 -14 0 -19 -5 -15 -15 4 -10 0 -15 -11 -15 -15 0 -15
-2 -4 -16 8 -10 15 -12 17 -5 4 12 32 15 32 4 0 -5 -12 -13 -26 -20 -23 -11
-29 -10 -43 8 -16 20 -16 20 -40 -2 -21 -20 -22 -23 -8 -34 15 -11 13 -25 -4
-25 -6 0 -20 32 -23 55 -2 16 -51 12 -52 -5 -1 -22 -15 -50 -24 -50 -4 0 -5
11 -2 26 4 23 2 24 -22 18 -26 -6 -37 8 -16 21 6 3 10 14 10 25 0 26 50 37 66
15 7 -9 17 -14 22 -11 6 3 13 0 15 -6 3 -7 6 2 6 20 1 34 2 35 25 26 8 -3 12
-13 9 -22 -4 -15 -3 -15 6 -2 9 12 13 13 20 2 7 -11 13 -9 32 11 25 27 40 29
47 9z m-1782 -9 c-8 -8 -23 -12 -89 -22 -44 -7 -77 -24 -66 -35 2 -3 25 -7 51
-10 38 -5 49 -3 57 12 6 9 11 11 11 5 0 -15 32 -12 99 6 23 7 50 9 60 5 9 -4
23 -8 31 -9 35 -4 80 -18 80 -26 0 -4 -17 -6 -37 -3 -29 3 -33 2 -18 -5 16 -7
13 -9 -17 -8 -23 1 -38 7 -38 15 0 15 -58 16 -97 1 -15 -6 -74 -11 -131 -11
-56 0 -105 -4 -108 -9 -7 -12 -24 -11 -24 0 0 14 41 54 71 70 36 18 180 39
165 24z m-282 -448 c-4 -8 -12 -15 -20 -15 -8 0 -14 -4 -14 -10 0 -5 -14 -10
-30 -10 -17 0 -48 -11 -70 -25 -22 -14 -46 -25 -55 -25 -8 0 -15 -4 -15 -10 0
-5 -7 -10 -15 -10 -8 0 -15 -4 -15 -8 0 -8 -46 -35 -63 -36 -4 -1 -12 -8 -17
-16 -8 -13 -13 -13 -31 -2 -19 12 -20 11 -14 -7 5 -17 3 -20 -12 -14 -10 3
-15 2 -11 -2 15 -16 -60 -51 -147 -69 l-30 -6 29 25 c16 15 35 24 42 21 8 -3
13 0 11 7 -1 8 9 11 31 9 25 -3 32 0 32 15 0 14 -2 15 -9 4 -5 -7 -15 -11 -22
-8 -9 3 0 11 23 21 20 9 39 20 43 26 3 5 17 10 30 10 12 0 25 6 28 13 7 18
131 79 148 72 8 -3 24 4 36 15 12 11 30 20 40 20 10 1 32 7 48 15 40 18 56 18
49 0z m-589 -329 c-11 -7 -35 -17 -53 -21 -18 -3 -30 -10 -27 -15 3 -4 -9 -13
-25 -20 -16 -7 -27 -16 -25 -21 3 -4 -9 -9 -27 -11 -18 -2 -32 -8 -31 -14 1
-6 -28 -26 -64 -44 -37 -19 -75 -42 -85 -52 -10 -10 -29 -23 -41 -29 -12 -5
-41 -20 -65 -34 -24 -13 -50 -21 -58 -18 -8 3 -14 -1 -14 -11 0 -23 -37 -43
-114 -61 -49 -11 -73 -12 -80 -5 -8 8 -4 12 12 16 12 4 20 9 17 13 -7 12 55
43 75 38 11 -3 21 0 24 7 3 7 8 7 14 -3 8 -11 13 -7 25 20 10 24 29 42 67 62
29 16 58 26 66 23 9 -3 11 0 7 11 -5 13 -2 15 11 10 40 -16 66 -19 66 -8 0 6
5 11 11 11 16 0 43 30 34 38 -4 4 -10 1 -12 -5 -3 -7 -13 -13 -23 -13 -10 0
-22 -4 -25 -10 -7 -12 -25 -13 -25 -2 0 4 17 15 38 25 55 26 96 51 104 62 5 6
8 4 8 -4 0 -12 2 -12 13 1 6 8 27 18 46 22 19 3 41 12 49 19 14 12 83 34 112
36 10 1 8 -3 -5 -13z m4429 -282 c3 -8 12 -14 21 -14 22 0 18 -27 -5 -33 -26
-7 -26 -27 0 -27 14 0 18 -5 13 -16 -4 -12 -1 -15 14 -12 11 1 20 -1 21 -6 0
-5 6 -12 13 -16 17 -11 2 -43 -17 -36 -8 3 -22 -1 -30 -9 -9 -8 -30 -15 -47
-15 -22 0 -28 -3 -20 -11 14 -14 69 -15 87 0 8 7 20 10 27 6 8 -6 7 -10 -2
-16 -10 -6 -11 -9 -1 -9 6 0 12 -7 12 -15 0 -17 -27 -20 -32 -4 -3 9 -10 9
-27 0 -18 -10 -26 -10 -39 2 -16 14 -55 30 -77 32 -5 0 -25 8 -43 18 -18 10
-45 16 -60 14 l-27 -3 33 -13 c34 -14 41 -31 18 -50 -16 -14 -43 -4 -66 23
-10 14 -10 16 5 16 14 0 15 3 5 15 -6 8 -9 19 -6 24 4 5 2 12 -4 16 -5 3 -10
-1 -10 -9 0 -9 -6 -16 -12 -16 -10 0 -10 -2 -1 -8 7 -4 10 -16 8 -27 -2 -11
-4 -23 -4 -27 -1 -5 -6 -8 -12 -8 -5 0 -8 4 -4 9 8 14 -52 54 -67 44 -21 -13
-38 -12 -38 2 0 7 7 16 15 19 13 4 14 10 5 26 -11 21 -6 40 11 40 5 0 9 -12
10 -27 0 -26 1 -26 16 10 13 31 20 38 36 33 12 -3 28 0 36 7 12 10 13 7 8 -19
-5 -24 -1 -36 14 -50 17 -15 23 -15 44 -4 21 11 28 10 50 -4 21 -14 29 -15 41
-5 11 9 14 8 14 -5 0 -9 7 -16 15 -16 8 0 12 6 9 13 -2 7 2 27 11 43 16 31 21
59 6 35 -9 -14 -91 -33 -91 -21 0 10 26 20 51 20 10 0 19 5 19 10 0 6 -7 10
-15 10 -24 0 -17 14 14 32 25 14 30 14 35 2 6 -16 26 -19 26 -4 0 6 -11 16
-25 22 -30 13 -32 23 -6 25 11 1 22 -5 25 -13z m1590 -49 c-19 -14 -19 -14 1
-15 11 0 31 -3 45 -7 23 -6 24 -5 10 12 -14 17 -13 18 5 11 40 -16 55 -18 55
-7 0 6 12 11 26 11 30 0 28 -23 -2 -29 -42 -8 -58 -38 -22 -43 12 -2 24 -9 26
-17 3 -9 0 -12 -11 -8 -10 4 -16 -2 -20 -21 -7 -35 -1 -42 31 -41 l27 0 -25
11 c-24 10 -24 10 -5 18 11 4 25 6 30 4 6 -1 22 -5 38 -8 34 -8 36 -26 2 -26
-15 0 -28 -7 -32 -17 -9 -23 -23 -33 -50 -33 -16 0 -23 -6 -23 -20 0 -24 1
-24 -38 -4 -38 19 -45 62 -12 71 20 5 29 33 10 33 -5 0 -10 7 -10 15 0 8 5 15
11 15 6 0 9 8 7 17 -2 12 -14 17 -41 18 -27 2 -35 -1 -28 -8 17 -17 13 -37 -8
-37 -22 0 -40 -20 -19 -21 7 0 2 -5 -12 -10 -35 -14 -74 4 -65 31 5 15 2 20
-12 20 -18 0 -43 17 -43 30 0 9 104 6 119 -4 11 -7 12 -6 5 5 -12 19 -11 52 1
61 6 4 19 8 29 8 20 0 20 0 0 -15z m-519 -115 c8 0 15 -4 15 -9 0 -5 15 -4 35
2 42 13 54 4 31 -22 -10 -10 -14 -21 -9 -24 10 -6 45 7 43 16 0 4 4 15 9 25 9
16 11 16 27 0 22 -22 11 -36 -12 -17 -15 12 -17 12 -12 -1 3 -8 15 -15 27 -14
40 1 12 -27 -29 -30 -8 -1 -14 -7 -12 -13 1 -7 -2 -13 -7 -13 -5 0 -12 6 -14
13 -4 7 -6 6 -6 -4 -1 -9 6 -19 14 -23 18 -7 20 -33 3 -39 -20 -7 -48 12 -42
28 4 8 3 31 0 50 -5 25 -12 35 -25 35 -15 0 -18 -8 -17 -40 0 -22 5 -40 11
-41 5 0 -3 -5 -19 -10 -25 -7 -37 -3 -75 21 -26 18 -37 30 -27 30 13 0 16 5
11 20 -5 14 -2 20 9 20 9 0 16 -9 16 -20 0 -11 5 -20 11 -20 6 0 9 7 6 14 -4
10 -1 13 9 9 9 -3 14 1 14 12 0 9 -9 19 -20 22 -23 6 -25 18 -7 37 10 12 13
12 20 0 4 -8 15 -14 22 -14z m-249 -33 c-16 -12 -15 -14 10 -37 l27 -25 -6 33
c-8 38 4 42 27 7 12 -18 13 -25 4 -25 -8 0 -7 -6 4 -16 13 -14 14 -20 5 -36
-10 -15 -9 -20 3 -28 8 -5 11 -13 6 -17 -5 -4 -11 -2 -13 5 -5 14 -33 16 -33
2 0 -5 4 -10 9 -10 5 0 11 -10 13 -22 3 -20 10 -23 46 -25 45 -1 67 -12 43
-21 -11 -4 -11 -6 0 -14 9 -6 2 -7 -21 -4 -29 5 -31 4 -12 -4 12 -5 22 -13 22
-17 -1 -19 -21 -38 -42 -38 -23 -1 -25 -6 -13 -37 5 -13 2 -18 -9 -18 -9 0
-16 6 -14 13 2 7 -8 27 -22 43 l-25 30 -23 -23 c-23 -23 -52 -22 -52 3 0 8
-10 24 -22 36 -13 12 -28 36 -34 53 -10 27 -15 30 -48 27 -32 -3 -38 1 -35 25
0 3 -7 11 -17 16 -16 9 -16 11 -2 16 13 5 12 9 -8 24 -23 17 -24 17 -24 -3 0
-20 -14 -27 -24 -11 -3 5 1 14 9 21 8 7 15 18 15 24 0 13 56 36 86 36 14 -1
10 -6 -15 -19 l-34 -18 24 -24 c13 -13 23 -27 22 -30 -1 -3 12 -3 29 -1 27 4
29 8 26 33 -3 17 0 29 6 29 23 0 56 -13 52 -19 -3 -4 0 -13 5 -21 8 -12 12
-12 16 -2 4 10 8 10 19 1 10 -8 14 -8 14 0 0 6 -5 11 -11 11 -6 0 -8 7 -5 16
5 14 4 15 -9 4 -10 -8 -15 -9 -15 -1 0 6 -8 11 -17 11 -10 0 -29 9 -43 20 -14
11 -30 20 -37 20 -6 0 -15 5 -18 10 -10 16 22 12 39 -5 8 -8 25 -15 38 -14
l23 0 -22 11 c-32 15 -29 29 5 22 15 -3 38 -1 52 4 32 12 51 -3 26 -21z
m-1126 -43 c13 -33 13 -34 -5 -34 -8 0 -15 5 -15 11 0 5 -5 7 -10 4 -8 -5 -7
-11 1 -21 6 -8 14 -12 17 -10 2 3 13 1 23 -5 14 -7 17 -6 13 4 -3 8 6 22 22
32 24 15 28 16 42 1 9 -8 12 -19 8 -23 -4 -4 -11 -1 -16 7 -7 11 -11 11 -24 1
-9 -8 -16 -20 -16 -27 0 -8 -6 -14 -14 -14 -8 0 -17 -4 -21 -9 -6 -10 79 -8
105 2 8 3 22 8 30 10 9 4 6 6 -7 6 -13 1 -23 6 -23 12 0 6 7 8 16 5 9 -3 24
-6 35 -6 12 0 19 -7 19 -20 0 -11 7 -20 16 -20 11 0 14 6 9 20 -3 11 -2 20 4
20 13 0 24 -37 16 -51 -7 -10 -30 -8 -72 8 -13 4 -11 0 7 -16 19 -17 21 -24
11 -28 -11 -5 -11 -7 0 -14 12 -8 11 -11 -1 -19 -11 -8 -4 -9 25 -4 46 8 68
21 58 38 -3 6 -2 7 3 3 5 -5 9 -14 9 -20 0 -7 8 -13 18 -15 13 -3 16 2 14 19
-2 12 -10 27 -18 33 -27 21 -39 44 -33 60 9 23 23 20 34 -9 5 -14 15 -25 21
-25 6 0 8 7 5 16 -3 9 -6 21 -6 27 0 22 -43 34 -69 20 -26 -12 -45 -8 -36 8 4
5 16 10 28 10 17 1 18 2 5 6 -10 2 -18 11 -18 20 0 8 3 13 8 11 62 -30 89 -46
100 -58 12 -13 13 -13 8 2 -4 15 0 15 37 -4 49 -26 57 -34 57 -68 0 -15 -3
-20 -8 -13 -8 13 -56 33 -75 32 -7 0 -3 -4 8 -9 13 -6 15 -9 5 -9 -8 -1 -21
-5 -29 -10 -12 -8 -13 -12 -1 -25 11 -14 10 -20 -5 -36 -10 -11 -13 -20 -7
-20 6 0 15 8 21 17 7 14 14 15 33 7 28 -13 49 -8 41 12 -3 8 1 14 11 14 9 0
16 -8 16 -20 0 -11 8 -24 18 -27 37 -15 56 -53 31 -68 -16 -11 -23 3 -10 19
17 20 -13 28 -61 17 -21 -5 -36 -5 -33 -1 3 4 -2 14 -11 21 -13 10 -19 10 -37
0 -17 -11 -22 -11 -33 4 -13 18 -70 18 -68 0 3 -19 65 -47 79 -35 15 13 28
-11 19 -35 -7 -16 -24 -21 -24 -6 0 5 -7 11 -14 14 -10 4 -13 1 -9 -9 3 -7 0
-14 -7 -14 -19 0 -40 27 -34 44 4 12 -1 14 -25 11 -17 -2 -31 0 -31 4 0 5 -15
16 -32 25 -18 8 -27 16 -19 16 10 0 11 3 2 14 -9 10 -8 15 4 20 25 9 17 29
-10 24 -13 -3 -26 0 -28 6 -3 7 -9 6 -21 -3 -9 -8 -20 -11 -23 -7 -4 4 -1 11
7 16 12 8 10 10 -7 10 -13 0 -23 -5 -23 -11 0 -6 -9 -9 -20 -6 -11 3 -20 0
-20 -6 0 -29 -29 34 -35 76 -10 68 24 107 45 51z m1759 -33 c9 -10 28 -21 41
-23 15 -2 26 -11 28 -22 4 -17 -1 -18 -47 -14 -37 4 -51 2 -51 -8 0 -7 14 -15
30 -19 17 -4 28 -11 24 -16 -6 -11 20 -39 37 -39 9 0 9 3 0 14 -16 19 5 26 57
19 50 -7 64 -38 31 -65 -32 -27 -46 -21 -19 7 13 14 19 25 13 25 -6 0 -13 -5
-15 -12 -3 -7 -22 -12 -44 -12 -21 0 -41 -3 -44 -7 -3 -4 -14 -1 -24 7 -20 14
-20 14 0 14 17 1 17 2 -5 20 -25 22 -57 27 -45 8 4 -6 -5 -3 -19 8 -15 10 -24
25 -22 31 3 10 0 10 -15 1 -10 -7 -23 -8 -27 -4 -4 5 -2 11 5 13 6 3 12 9 12
14 0 5 -11 4 -26 -1 -35 -14 -44 -13 -44 6 0 13 -3 14 -14 5 -11 -9 -20 -10
-35 -1 -12 6 -21 7 -22 3 0 -4 -5 3 -10 16 -11 27 -6 37 13 25 19 -12 41 -14
53 -4 14 11 58 9 67 -4 3 -5 13 -2 23 7 9 10 20 17 25 17 15 0 23 -22 10 -30
-6 -4 -10 -16 -7 -26 4 -17 6 -17 12 4 4 12 14 22 22 22 10 0 14 7 10 20 -6
25 1 25 22 1z m-349 -59 c0 -4 8 -8 18 -9 70 -4 146 -14 155 -20 7 -4 17 -8
22 -8 6 0 10 -5 10 -12 0 -20 14 -27 21 -9 8 20 23 20 46 -1 23 -21 23 -37 -1
-30 -24 6 -46 -7 -37 -22 9 -15 58 -10 71 7 9 11 14 10 29 -7 17 -19 17 -21 2
-27 -9 -3 -23 -3 -32 0 -11 4 -18 -1 -21 -14 -7 -26 -59 -25 -66 2 -6 21 -52
25 -60 6 -4 -10 -8 -10 -15 1 -5 7 -15 10 -21 7 -22 -14 -10 17 15 41 20 19
24 27 15 36 -8 8 -14 9 -19 1 -14 -22 -53 -23 -73 -3 -11 11 -24 17 -29 14
-10 -6 32 -55 49 -55 6 0 11 -4 11 -10 0 -12 -33 -30 -56 -30 -14 0 -15 3 -6
12 20 20 15 40 -7 28 -27 -14 -44 -13 -67 4 -19 14 -19 15 4 36 21 20 31 47
13 36 -5 -3 -11 3 -14 14 -4 16 0 20 19 20 13 0 24 -4 24 -8z m-835 -92 c-3
-5 -1 -17 5 -27 17 -31 33 -77 31 -92 -2 -10 4 -12 23 -7 32 8 34 -6 4 -27
-22 -15 -22 -16 -3 -17 16 0 17 -2 6 -9 -15 -10 -60 5 -73 24 -5 6 -14 4 -25
-7 -16 -17 -16 -18 0 -18 15 0 16 -2 5 -14 -7 -8 -15 -12 -17 -11 -1 2 -15 -1
-30 -6 l-26 -9 25 20 c21 17 23 21 10 30 -8 5 -21 10 -27 10 -7 0 -13 5 -13
10 0 16 -36 12 -51 -6 -12 -15 -11 -16 8 -10 26 8 62 -7 44 -18 -6 -4 -11 -2
-11 3 0 6 -7 11 -15 11 -14 0 -20 -17 -16 -47 1 -7 -5 -13 -14 -13 -8 0 -18
-1 -22 -2 -5 -2 -8 5 -8 14 0 9 -22 38 -50 64 -27 25 -44 43 -37 39 8 -4 25
-1 39 6 20 11 26 11 34 -1 5 -8 7 -20 5 -27 -3 -8 4 -9 24 -3 36 10 69 29 53
30 -18 0 -16 20 2 20 8 0 21 -16 29 -35 17 -39 22 -41 51 -18 20 15 20 15 -2
10 -13 -3 -26 -1 -29 4 -3 5 0 9 5 9 6 0 11 5 11 11 0 6 -7 9 -15 5 -16 -6
-20 11 -7 30 4 5 21 16 39 23 31 13 32 14 16 37 -15 23 -14 24 6 24 12 0 20
-4 16 -10z"/>
<path d="M9777 3250 c5 -18 1 -20 -55 -20 -34 0 -63 -4 -66 -9 -3 -5 -27 -7
-53 -5 -47 4 -47 4 -13 -7 l34 -11 -48 -24 c-48 -24 -82 -31 -72 -15 4 5 -17
1 -46 -10 -29 -10 -75 -19 -103 -19 -67 0 -126 -11 -119 -21 7 -12 -3 -11 -27
1 -29 16 -23 -2 11 -35 l30 -29 108 27 c59 15 134 35 167 43 33 8 85 23 115
34 30 10 89 29 130 40 118 34 161 51 154 61 -3 6 -29 9 -57 7 -29 -1 -62 1
-74 5 -18 7 -21 5 -16 -13z"/>
<path d="M10310 3092 c-19 -2 -39 -10 -43 -18 -4 -8 -19 -14 -32 -14 -13 0
-27 -4 -30 -10 -3 -5 -29 -9 -58 -8 -30 0 -53 -4 -55 -11 -2 -6 -15 -11 -28
-11 -28 0 -31 -8 -7 -25 10 -8 25 -9 42 -4 14 5 55 16 91 24 149 37 160 39
212 25 36 -9 53 -9 61 -1 8 8 6 15 -9 26 -17 13 -28 16 -74 19 -8 1 -19 3 -25
6 -5 3 -26 4 -45 2z"/>
<path d="M9322 3024 c-28 -12 -32 -17 -22 -29 10 -12 9 -15 -9 -15 -11 0 -24
0 -28 -1 -4 0 -9 5 -12 12 -2 8 2 10 13 6 9 -4 16 -2 16 3 0 6 -11 11 -25 12
-14 0 -30 1 -37 2 -6 1 -13 -6 -15 -14 -4 -13 -3 -13 6 0 10 13 12 13 21 0 12
-18 13 -30 3 -29 -21 3 -34 -2 -30 -13 2 -7 -3 -18 -12 -25 -14 -11 -13 -12 7
-13 17 0 22 -6 22 -24 0 -14 5 -28 11 -31 16 -11 23 3 10 19 -10 12 -8 17 9
26 11 6 24 9 29 6 5 -3 14 1 21 9 9 11 16 12 26 4 18 -15 34 -3 34 25 0 13 9
31 20 41 15 14 17 21 9 32 -14 16 -24 16 -67 -3z"/>
<path d="M9886 2985 c-8 -9 -18 -14 -20 -13 -3 2 -14 -4 -24 -13 -15 -12 -30
-14 -73 -9 -57 8 -81 -4 -52 -25 28 -20 -2 -26 -53 -10 -60 18 -64 18 -40 0
29 -22 16 -26 -32 -10 -43 15 -72 11 -72 -9 0 -8 13 -13 32 -13 18 0 34 -5 36
-11 6 -18 42 -14 123 12 109 35 211 51 236 37 16 -8 24 -7 32 3 14 16 4 26
-25 26 -23 0 -41 16 -30 27 4 4 12 1 18 -5 14 -14 38 -16 38 -3 0 8 -52 31
-71 31 -4 0 -14 -7 -23 -15z"/>
<path d="M10611 2936 c-10 -12 -18 -13 -32 -6 -21 12 -59 -6 -59 -27 0 -15
-14 -16 -55 -5 -35 10 -55 6 -55 -13 0 -14 -53 -30 -69 -21 -5 4 -13 1 -16 -5
-4 -5 -14 -8 -22 -5 -11 4 -13 2 -9 -9 4 -11 -1 -15 -19 -15 -14 0 -25 -5 -25
-11 0 -7 -14 -8 -39 -4 -26 4 -41 2 -47 -6 -5 -9 -1 -11 14 -7 12 4 22 2 22
-3 0 -9 -5 -11 -50 -14 -14 -1 -40 -10 -58 -19 -23 -12 -37 -14 -45 -7 -13 10
-103 8 -115 -3 -3 -4 -1 -11 7 -15 11 -7 11 -12 0 -30 -8 -11 -17 -21 -21 -21
-13 0 -18 19 -8 25 14 8 -6 35 -26 35 -13 0 -64 -42 -64 -53 0 -4 7 -4 15 -1
11 4 13 2 9 -9 -8 -22 -66 -29 -81 -9 -12 14 -13 14 -13 0 0 -17 -18 -27 -37
-21 -7 3 -13 11 -13 18 0 8 -4 17 -10 20 -6 4 -7 -1 -3 -12 6 -16 5 -16 -10
-4 -9 7 -14 17 -12 22 6 8 -26 29 -44 29 -23 0 -7 -27 40 -67 27 -24 59 -43
70 -43 11 0 45 9 77 20 31 11 136 40 232 65 96 24 202 54 235 65 33 12 85 27
115 35 169 42 250 69 250 82 0 7 -7 16 -16 20 -11 4 -12 8 -4 13 7 4 11 13 8
20 -3 9 -7 8 -17 -4z"/>
<path d="M10625 2776 c-19 -14 -19 -15 -1 -34 10 -12 15 -26 11 -31 -10 -17
-25 -13 -25 7 0 9 -5 24 -11 32 -9 13 -10 12 -5 -2 6 -19 -9 -34 -19 -18 -10
16 -25 11 -18 -6 5 -13 2 -15 -15 -10 -11 4 -23 2 -27 -5 -6 -8 -10 -8 -16 2
-4 7 -11 11 -14 7 -4 -3 1 -17 9 -30 9 -14 13 -28 9 -32 -5 -4 0 -6 9 -4 9 1
16 -1 15 -7 -1 -5 -12 -9 -24 -7 -16 2 -23 -2 -23 -13 0 -12 -6 -15 -20 -10
-14 5 -20 2 -20 -9 0 -17 3 -18 70 -17 33 0 40 -2 25 -8 -11 -5 -23 -7 -26 -5
-4 2 -14 -7 -22 -20 -23 -34 -63 -39 -93 -11 -14 13 -37 25 -53 27 -41 6 -101
-2 -101 -14 0 -6 11 -7 24 -4 14 3 32 3 40 0 19 -7 22 -34 4 -34 -7 0 -1 -11
14 -24 15 -12 25 -26 22 -29 -12 -12 7 -28 21 -17 9 8 14 5 18 -12 7 -24 1
-38 -14 -38 -6 0 -7 5 -3 12 5 8 2 9 -10 5 -10 -4 -27 -7 -39 -8 -15 -1 -9 -5
17 -13 25 -8 35 -15 28 -20 -14 -9 -16 -26 -2 -26 5 0 12 11 16 25 5 19 13 25
33 25 l26 -1 -25 -21 c-24 -20 -21 -20 26 -1 14 5 15 3 5 -15 -12 -23 0 -39
21 -26 7 4 8 3 4 -5 -5 -8 -19 -10 -38 -5 -26 5 -30 4 -25 -11 4 -9 7 -19 7
-21 0 -2 9 -4 19 -4 11 0 23 -4 26 -10 11 -18 35 -10 47 15 8 17 17 24 27 20
11 -4 10 -1 -3 14 -18 20 -18 21 5 29 l23 9 -24 13 c-23 13 -24 13 -5 21 19 7
19 8 -2 8 -16 1 -21 5 -16 17 5 13 2 15 -16 9 l-22 -7 23 24 c13 13 30 24 38
23 32 0 14 30 -20 35 -23 3 -31 8 -22 13 6 5 17 5 22 2 6 -3 10 1 10 10 0 12
6 15 23 9 12 -4 25 -11 28 -17 5 -6 18 -6 39 2 42 14 40 15 41 -11 1 -21 2
-21 6 -3 3 11 9 25 14 31 11 14 1 24 -17 17 -19 -7 -18 14 1 24 35 20 23 158
-14 165 -12 2 -11 6 3 21 21 20 8 23 -19 3z"/>
<path d="M10636 2474 c-4 -9 -13 -14 -21 -10 -9 3 -15 0 -15 -9 0 -8 -6 -15
-14 -15 -8 0 -17 -7 -20 -16 -9 -24 -8 -27 14 -21 11 3 18 1 14 -4 -3 -5 -13
-9 -23 -9 -23 0 -26 -46 -4 -54 8 -3 11 -10 8 -16 -4 -6 -11 -7 -17 -4 -6 4
-9 1 -6 -7 5 -15 49 -19 59 -6 3 5 9 2 12 -7 4 -9 2 -16 -2 -16 -5 0 -4 -15 1
-34 12 -37 6 -66 -13 -66 -7 0 -9 9 -5 24 5 22 3 24 -19 20 -14 -2 -25 0 -25
6 0 7 -8 9 -19 5 -11 -3 -22 -2 -25 4 -7 11 -54 -9 -60 -26 -3 -7 2 -20 12
-29 15 -16 14 -17 -16 -12 -24 3 -29 2 -21 -8 7 -9 5 -14 -8 -17 -14 -4 -13
-5 5 -6 12 0 22 -6 22 -12 0 -8 -17 -10 -54 -6 -33 3 -58 1 -65 -6 -16 -16
-14 -30 3 -24 8 3 17 -1 20 -9 8 -21 26 -17 26 6 0 19 5 21 63 18 73 -4 93
-13 76 -34 -8 -10 -8 -14 0 -14 6 0 11 -9 11 -19 0 -10 7 -21 15 -25 8 -3 15
-12 15 -20 0 -10 6 -13 17 -9 11 4 14 3 9 -6 -5 -8 -1 -14 13 -18 33 -8 26
-33 -9 -33 -33 0 -38 -11 -15 -30 11 -9 13 -16 5 -24 -15 -15 -12 -39 3 -33
18 7 78 -23 71 -34 -3 -5 2 -9 10 -9 20 0 20 17 1 54 -8 15 -12 33 -8 39 11
18 10 117 -2 116 -24 -3 -59 3 -44 8 11 3 15 11 11 25 -3 13 1 24 12 30 9 5
16 17 16 26 -1 15 -2 15 -15 -3 -16 -20 -72 -35 -60 -15 3 6 11 8 16 5 5 -4 9
3 9 14 0 20 -18 28 -45 21 -19 -5 -48 -1 -57 8 -5 5 4 7 22 4 18 -3 30 0 30 7
0 6 -10 11 -22 11 l-22 0 22 16 c24 17 46 10 38 -12 -3 -8 1 -14 10 -14 8 0
12 5 9 10 -3 6 1 10 10 10 9 0 14 -4 11 -9 -6 -10 51 -37 60 -28 3 3 7 38 8
77 3 63 1 73 -15 77 -17 5 -17 7 -2 29 8 13 13 31 9 39 -3 8 0 15 7 15 8 0 9
3 1 8 -15 10 -24 51 -13 58 5 3 9 18 9 35 0 32 -23 41 -34 13z"/>
<path d="M7457 2363 c-15 -14 -1329 -32 -2383 -33 l-371 -1 -13 -24 c-10 -19
-20 -24 -43 -22 -18 1 -32 -3 -35 -11 -3 -11 0 -12 17 -3 12 7 21 8 21 2 0 -5
-18 -18 -40 -28 -42 -19 -46 -31 -29 -82 8 -23 8 -35 -1 -46 -8 -10 -9 -19 0
-35 6 -11 7 -19 3 -18 -4 2 -8 -1 -9 -7 0 -5 7 -9 16 -7 22 4 31 -28 23 -86
-5 -37 -4 -44 8 -37 12 8 12 6 0 -9 -8 -9 -20 -15 -27 -12 -14 5 -29 -29 -25
-56 1 -12 -4 -18 -18 -18 -12 0 -21 -4 -21 -10 0 -5 -8 -7 -17 -4 -14 4 -14 3
1 -7 15 -9 21 -9 24 -1 5 17 32 15 32 -3 0 -8 -4 -15 -10 -15 -5 0 -10 -7 -10
-16 0 -13 -3 -14 -14 -5 -12 10 -16 4 -22 -36 -8 -56 -22 -81 -36 -61 -7 10
-11 9 -22 -4 -7 -10 -16 -18 -19 -18 -13 0 -46 -34 -41 -42 3 -4 -2 -5 -10 -2
-9 3 -16 2 -16 -3 0 -6 -12 -23 -26 -38 -20 -22 -23 -30 -12 -36 23 -15 108
16 108 39 0 13 3 13 12 4 10 -10 10 -15 1 -20 -6 -4 -12 -16 -13 -27 -5 -48 1
-66 25 -75 27 -10 32 -24 13 -36 -15 -9 16 -22 55 -23 24 -1 27 -4 22 -21 -8
-24 -2 -25 20 -4 15 15 17 15 22 -4 3 -15 12 -21 27 -19 15 1 21 -3 19 -16 0
-12 4 -16 13 -13 8 3 14 1 14 -4 0 -6 -9 -10 -19 -10 -11 0 -23 -4 -26 -10 -7
-11 25 -70 37 -70 14 0 47 33 42 42 -3 4 -1 8 5 8 5 0 12 -6 15 -12 5 -10 7
-10 12 0 3 6 18 12 34 12 33 0 45 -29 24 -57 -13 -16 -14 -16 -8 10 3 15 4 27
1 27 -17 0 -79 -33 -84 -45 -3 -8 -11 -15 -19 -15 -7 0 -17 -7 -22 -16 -6 -11
-11 -13 -16 -5 -4 6 -2 11 3 11 6 0 11 4 11 10 0 5 -7 7 -15 4 -10 -4 -15 0
-15 11 0 15 -1 15 -16 1 -8 -9 -20 -16 -25 -16 -15 0 -10 17 6 24 8 3 15 11
15 17 0 8 -4 8 -13 1 -8 -7 -18 -7 -27 -2 -19 12 -30 12 -30 0 0 -11 -48 -60
-58 -59 -18 3 -24 -2 -14 -14 7 -8 6 -18 -5 -32 -15 -20 -15 -20 -8 2 9 32 -4
48 -21 26 -12 -17 -13 -16 -15 12 -1 17 -3 22 -6 13 -3 -13 -12 -15 -37 -11
-20 3 -36 1 -40 -6 -4 -6 -17 -11 -30 -11 -12 0 -32 -9 -44 -20 -12 -12 -22
-16 -22 -10 0 6 -4 9 -9 5 -5 -3 -13 -1 -16 5 -4 6 7 23 24 37 31 27 42 59 19
50 -7 -2 -12 -12 -12 -21 1 -9 -2 -16 -7 -16 -5 0 -9 7 -9 15 0 8 -4 15 -10
15 -5 0 -10 -11 -10 -25 0 -28 -5 -31 -24 -13 -11 11 -11 16 1 34 10 16 11 28
3 48 -14 37 -13 39 11 33 14 -4 18 -2 11 6 -21 27 -10 81 25 124 18 23 34 46
35 50 0 4 14 16 30 26 29 17 30 37 2 37 -8 0 -14 5 -14 11 0 5 -4 7 -10 4 -5
-3 -10 -11 -10 -16 0 -6 5 -7 10 -4 6 3 10 1 10 -4 0 -6 -6 -11 -14 -11 -7 0
-19 -7 -26 -15 -7 -8 -21 -15 -31 -15 -11 0 -19 -6 -19 -14 0 -15 -27 -29 -40
-21 -4 3 -10 -5 -14 -18 -8 -31 -7 -32 14 -29 27 4 25 -13 -5 -36 -14 -11 -25
-25 -25 -31 0 -16 11 -13 26 7 10 14 10 10 1 -20 -7 -21 -17 -38 -24 -38 -12
0 -25 -30 -28 -62 -1 -10 7 -20 17 -24 33 -10 20 -27 -16 -20 -32 6 -35 5 -47
-29 -7 -19 -17 -35 -22 -35 -4 0 -5 -5 -1 -12 4 -6 3 -8 -4 -4 -6 3 -20 -6
-31 -20 -12 -15 -24 -24 -28 -21 -3 4 0 13 7 22 8 10 9 15 1 15 -6 0 -11 -4
-11 -9 0 -5 -16 -15 -35 -21 -27 -9 -35 -17 -35 -35 0 -25 -21 -46 -27 -28 -4
12 -43 5 -43 -7 0 -5 8 -10 18 -12 15 -3 14 -6 -5 -23 -13 -11 -23 -23 -23
-27 0 -13 48 -9 53 5 4 9 7 9 14 0 11 -16 739 -17 749 -2 3 5 11 6 17 2 21
-13 58 -14 72 -3 9 8 15 8 20 0 3 -5 21 -10 40 -10 29 0 35 4 46 35 7 19 17
35 21 35 13 0 9 -38 -6 -52 -12 -12 3 -15 105 -16 97 -2 119 0 119 12 0 7 7
17 16 20 29 11 37 6 19 -13 -17 -20 -15 -20 148 -19 144 1 164 3 163 17 -1 11
9 17 34 19 19 2 31 0 27 -5 -5 -4 -16 -8 -24 -8 -9 0 -18 -5 -20 -12 -3 -8 20
-11 76 -11 66 0 81 3 84 16 4 15 5 15 6 -1 1 -14 9 -17 44 -15 23 2 48 10 55
18 12 13 13 13 8 -2 -7 -22 7 -23 24 -3 7 8 17 12 22 9 6 -4 5 -10 -3 -15 -7
-4 20 -7 63 -7 66 1 76 3 71 17 -3 11 0 10 12 -4 14 -17 17 -18 26 -5 8 11 12
12 16 3 8 -20 71 -16 76 4 4 16 5 16 6 1 1 -15 16 -17 120 -17 111 -1 120 1
126 19 8 24 35 27 35 4 0 -10 -6 -14 -15 -10 -8 3 -15 1 -15 -4 0 -6 53 -10
130 -10 l130 0 0 27 c0 14 3 23 7 19 4 -4 8 -15 8 -24 0 -15 16 -17 150 -17
88 0 164 5 183 12 29 10 33 10 28 -2 -4 -13 13 -15 108 -15 109 0 114 1 140
26 32 32 32 40 5 55 -17 9 -23 8 -30 -2 -7 -11 -9 -11 -9 1 0 9 4 20 9 25 4 6
11 22 15 37 5 22 3 28 -11 29 -15 0 -15 2 5 16 12 8 22 22 22 29 0 17 14 18
42 3 18 -9 20 -9 15 4 -6 17 12 27 49 27 15 0 24 -6 24 -15 0 -8 9 -15 20 -15
24 0 26 15 4 24 -9 4 -14 9 -11 12 3 4 -3 16 -14 28 -20 21 -21 21 -35 2 -8
-11 -14 -14 -14 -7 0 8 -7 10 -20 6 -14 -4 -20 -2 -20 9 0 8 13 17 29 21 24 5
27 10 23 33 l-5 27 -10 -28 c-7 -22 -12 -25 -23 -17 -7 7 -18 9 -24 5 -13 -8
-13 -42 0 -50 13 -8 13 -35 0 -35 -20 0 -35 50 -22 70 6 11 8 22 3 25 -5 3
-12 -1 -14 -7 -4 -10 -6 -10 -6 0 -1 6 -8 12 -17 12 -11 0 -14 -6 -9 -20 3
-11 2 -27 -3 -36 -7 -13 -10 -10 -15 16 -4 18 -5 36 -2 40 3 4 -3 7 -13 6 -9
0 -17 6 -17 14 0 10 11 16 30 17 17 1 47 6 67 11 20 5 39 7 42 4 4 -3 6 -1 6
5 0 7 22 10 58 9 31 -1 62 2 69 7 6 4 14 3 18 -3 10 -16 22 -12 28 11 4 14 10
18 19 13 7 -5 32 -9 55 -9 32 -1 43 3 46 17 7 25 24 23 38 -4 6 -13 13 -24 14
-26 1 -2 16 10 32 25 54 50 84 73 99 73 8 0 14 5 14 10 0 6 5 10 11 10 6 0 26
17 44 37 30 33 33 43 33 100 1 71 5 83 32 83 20 0 30 24 30 65 -2 67 22 114
47 93 12 -9 14 -9 13 3 -4 26 0 40 9 34 5 -3 12 -1 16 5 9 14 -18 13 -33 -2
-19 -19 -40 7 -36 47 2 34 -9 42 -48 36 -5 0 -8 3 -8 9 0 5 10 10 23 11 12 1
-7 7 -42 15 -77 17 -82 20 -47 33 31 13 37 46 6 38 -17 -4 -20 -2 -15 13 3 10
3 30 -1 44 -5 20 -12 26 -35 26 -16 0 -29 4 -29 9 0 5 -12 14 -27 20 -36 14
-82 11 -76 -6 3 -7 -3 -11 -15 -10 -14 1 -19 9 -20 29 -1 26 2 27 33 23 19 -2
37 0 40 6 4 5 3 39 0 75 -6 49 -11 64 -21 60 -8 -3 -14 -1 -14 4 0 7 -116 10
-123 3z m-297 -158 l-23 -25 27 0 c24 0 27 -2 16 -15 -10 -12 -10 -15 4 -15 9
0 16 -7 16 -16 0 -10 6 -14 14 -11 9 4 13 0 12 -11 -2 -9 -9 -18 -16 -20 -7
-3 -10 0 -6 7 5 7 -4 11 -26 11 -25 0 -29 3 -18 10 13 9 13 11 0 20 -23 15
-32 12 -26 -8 4 -13 -2 -21 -24 -29 -27 -10 -29 -15 -24 -42 6 -26 4 -30 -10
-25 -11 4 -16 1 -16 -10 0 -9 -5 -15 -11 -13 -6 1 -14 -4 -16 -11 -3 -7 1 -10
10 -6 8 3 18 1 22 -5 5 -10 -7 -15 -27 -12 -5 0 -8 -4 -8 -9 0 -5 -7 -10 -15
-10 -7 0 -18 -8 -24 -17 -5 -10 -13 -15 -17 -11 -8 8 31 62 75 104 l30 28 -25
23 c-27 24 -26 63 1 63 20 0 27 17 16 38 -8 14 -6 19 5 19 9 0 18 -13 21 -30
6 -28 7 -29 20 -12 17 25 17 36 -2 29 -25 -10 -17 5 13 20 44 24 59 20 32 -9z
m-2188 -21 c7 -5 8 -2 3 6 -6 9 0 11 24 6 17 -3 45 -9 61 -12 17 -3 30 -2 30
3 0 6 140 10 185 4 52 -6 353 -13 525 -12 554 5 646 6 655 12 13 8 47 5 64 -5
7 -5 42 -8 77 -8 35 0 64 -3 64 -7 0 -3 -15 -15 -34 -25 -26 -14 -38 -16 -54
-7 -28 15 -32 14 -26 -6 4 -13 -1 -10 -16 7 -20 22 -23 23 -31 7 -6 -10 -14
-15 -20 -12 -5 4 -9 -3 -9 -13 0 -18 -4 -19 -40 -10 -33 9 -42 7 -57 -8 -10
-10 -18 -22 -19 -28 -1 -6 -5 -22 -11 -35 -9 -21 -10 -22 -16 -6 -4 9 -2 23 4
31 6 7 8 22 4 34 -5 14 -2 20 10 20 9 0 13 5 10 10 -12 19 -35 10 -35 -12 0
-13 -6 -31 -14 -40 -16 -22 -36 -5 -36 31 0 23 -4 26 -38 26 -20 0 -47 -6 -59
-13 -29 -16 -33 -15 -33 9 0 16 -3 19 -12 12 -25 -19 -48 -23 -48 -8 0 8 8 15
17 15 12 0 14 3 7 10 -16 16 -44 1 -45 -24 0 -21 0 -21 -11 2 -6 12 -18 22
-27 22 -12 0 -12 -3 -3 -12 19 -19 14 -28 -14 -28 -14 0 -23 -4 -19 -9 3 -5
-5 -11 -17 -13 -13 -2 -22 -9 -20 -17 2 -8 -3 -11 -12 -8 -9 4 -18 2 -21 -2
-2 -5 11 -12 30 -15 37 -7 48 -26 15 -26 -19 0 -40 -44 -26 -57 3 -4 6 3 6 14
0 16 5 20 21 16 11 -3 18 -11 15 -19 -3 -8 5 -14 22 -16 25 -3 27 -6 24 -42
-3 -35 -1 -38 12 -27 27 23 46 7 36 -30 -5 -17 -7 -36 -4 -40 3 -5 -6 -20 -20
-34 -13 -13 -26 -32 -29 -42 -4 -17 -4 -17 -10 0 -17 44 -20 54 -23 81 -5 33
-14 48 -14 23 0 -20 -9 -21 -32 -3 -10 7 -18 24 -18 38 0 32 -9 41 -27 26 -20
-16 -41 8 -47 52 -3 19 -5 37 -6 40 0 3 -5 -3 -11 -13 -10 -16 -12 -16 -29 5
-12 14 -23 19 -27 13 -5 -5 -16 -16 -26 -24 -15 -12 -17 -12 -11 3 3 9 10 16
15 16 18 0 8 28 -11 33 -15 4 -20 0 -20 -13 0 -28 -20 -35 -22 -8 -2 33 -1 41
7 63 l8 20 -16 -20 c-9 -11 -17 -39 -17 -63 0 -41 -1 -42 -22 -31 -18 10 -19
13 -8 18 8 3 14 13 14 21 -1 8 -2 25 -3 37 -1 27 -31 21 -31 -6 0 -15 -8 -17
-57 -13 -54 4 -73 14 -87 46 -3 7 -11 3 -21 -9 -14 -17 -17 -18 -25 -5 -8 13
-10 12 -10 -2 0 -10 7 -18 15 -18 8 0 15 -5 15 -10 0 -17 -29 -23 -44 -11 -8
7 -31 9 -55 6 -40 -5 -41 -4 -31 16 7 11 10 23 7 25 -9 10 -67 -10 -67 -22 0
-8 -11 -19 -24 -25 -13 -6 -27 -20 -29 -30 -3 -11 -10 -19 -17 -19 -6 0 1 18
17 39 15 22 31 37 35 34 5 -2 8 0 8 5 0 15 -81 6 -91 -9 -6 -10 -29 -14 -84
-13 -49 1 -75 -2 -75 -10 0 -11 -20 14 -20 25 0 4 11 10 25 13 14 4 25 10 25
15 0 6 -13 6 -32 0 -22 -6 -34 -6 -36 1 -2 5 -10 3 -19 -5 -16 -17 -43 -20
-43 -5 0 6 -7 10 -15 10 -8 0 -15 4 -15 8 0 5 -16 7 -35 6 -29 -3 -36 1 -41
20 -4 18 -11 22 -34 18 -17 -2 -42 -1 -56 2 -27 7 -27 8 -8 26 13 13 39 20 87
23 38 3 71 7 73 10 6 5 91 -10 106 -19z m-17 -324 c-3 -5 -1 -10 4 -10 15 0
14 -27 -1 -33 -7 -2 -10 -7 -7 -11 3 -3 16 4 28 15 21 20 21 22 4 35 -10 7
-13 14 -7 14 18 0 37 -28 30 -45 -3 -9 -2 -13 4 -10 6 4 10 -8 10 -29 0 -19 5
-38 11 -41 16 -11 23 3 10 19 -8 10 -9 16 -1 21 5 3 10 1 10 -4 0 -6 4 -11 10
-11 5 0 7 7 4 15 -8 20 13 45 37 45 16 0 28 -21 35 -57 1 -6 -8 -14 -19 -17
-26 -7 -36 2 -17 14 13 8 13 10 -1 10 -9 0 -19 -9 -22 -20 -3 -11 -1 -18 4
-14 5 3 9 -2 9 -10 0 -8 8 -19 17 -25 10 -5 14 -13 9 -18 -5 -4 -11 -2 -13 5
-3 6 -9 9 -14 6 -6 -4 -6 -11 1 -19 8 -9 5 -14 -10 -18 -16 -4 -20 0 -20 19 0
13 -5 24 -11 24 -5 0 -7 5 -3 12 5 8 2 9 -9 5 -9 -3 -19 -2 -22 3 -4 6 -18 10
-32 10 l-27 0 27 28 27 28 -43 -2 c-54 -3 -52 -1 -37 -19 7 -8 9 -15 5 -15 -4
0 -1 -7 6 -17 13 -15 10 -16 -30 -9 -50 8 -89 25 -58 26 9 0 17 4 17 9 0 5 9
13 21 16 15 5 18 10 9 20 -9 11 -6 14 12 17 13 2 24 10 24 18 3 28 4 30 15 30
5 0 7 -4 4 -10z m1045 -413 c0 -14 89 -62 98 -52 3 3 0 5 -6 5 -7 0 -12 14
-12 30 0 35 4 36 31 11 14 -13 19 -27 15 -47 -2 -16 -5 -29 -6 -29 -1 0 -3
-10 -4 -22 -3 -25 2 -27 23 -14 7 5 11 14 7 20 -5 7 -1 9 9 5 10 -4 15 -14 12
-25 -6 -22 29 -22 55 0 13 11 14 18 5 32 -16 25 0 37 17 13 14 -18 15 -18 21
-1 10 23 51 22 77 -3 12 -11 32 -20 45 -20 13 0 23 -4 23 -10 0 -5 -7 -10 -15
-10 -19 0 -19 -9 0 -30 14 -15 14 -19 -1 -31 -13 -11 -18 -11 -21 -1 -3 6 -11
12 -18 12 -7 0 -15 -6 -18 -12 -3 -9 -10 -7 -22 7 -16 20 -16 19 -10 -7 6 -29
-11 -40 -21 -14 -10 26 -36 6 -32 -24 4 -26 2 -27 -19 -19 -16 6 -22 6 -18 -1
4 -6 2 -17 -5 -25 -9 -10 -7 -15 9 -20 21 -6 25 -16 21 -45 -1 -12 1 -12 10
-3 7 6 13 22 14 34 1 22 26 41 26 20 0 -6 4 -11 9 -11 6 0 6 12 1 30 -8 28 4
44 13 18 2 -8 11 0 20 17 11 22 17 26 21 15 3 -8 10 -27 15 -42 7 -19 7 -29 0
-34 -6 -3 -8 -17 -4 -31 6 -24 5 -24 -11 -9 -9 9 -21 15 -27 13 -14 -4 -46
-60 -40 -69 2 -5 -1 -8 -6 -8 -6 0 -11 -7 -11 -15 0 -8 -4 -15 -10 -15 -12 0
-13 27 -1 34 5 3 11 15 14 26 4 16 2 18 -13 10 -9 -5 -21 -6 -25 -2 -5 4 -5
-2 -1 -12 8 -23 -14 -76 -31 -76 -7 0 -13 5 -13 10 0 6 -7 10 -15 10 -8 0 -15
5 -15 11 0 7 11 8 29 4 34 -7 52 10 20 20 -20 7 -20 7 -2 22 16 13 16 14 1 9
-12 -3 -15 -1 -11 10 8 20 -17 50 -28 32 -5 -7 -3 -16 4 -20 8 -5 5 -14 -11
-31 -17 -18 -22 -35 -22 -75 0 -59 -20 -79 -45 -46 -11 14 -14 15 -15 4 0 -12
-3 -11 -17 3 -13 13 -14 20 -5 29 9 9 15 9 24 0 7 -7 17 -12 22 -12 6 0 5 5
-2 12 -16 16 -15 36 3 54 20 20 19 34 -2 34 -13 0 -14 3 -5 12 7 7 12 16 12
21 0 20 -26 -20 -27 -43 -1 -14 -7 -26 -13 -28 -5 -2 -10 -12 -10 -22 0 -10
-7 -20 -15 -24 -8 -3 -15 -10 -15 -15 0 -5 7 -16 15 -25 8 -8 15 -19 15 -25 0
-6 -7 -11 -15 -11 -8 0 -15 7 -15 15 0 9 -11 21 -25 27 -14 6 -25 15 -25 20 0
5 -11 13 -25 18 -17 6 -25 17 -25 34 0 13 -7 29 -15 36 -9 7 -14 19 -11 26 6
16 -29 38 -47 30 -7 -2 -4 -5 5 -5 25 -1 19 -41 -9 -64 -31 -25 -30 -47 2 -41
14 2 25 0 25 -6 0 -5 -7 -10 -15 -10 -8 0 -15 -4 -15 -9 0 -12 -60 -20 -67 -8
-3 5 1 14 8 19 10 6 6 7 -11 2 -33 -9 -35 -11 -20 -29 8 -10 9 -15 1 -15 -6 0
-11 5 -11 10 0 18 -20 11 -21 -7 0 -13 -3 -11 -10 6 -5 13 -8 25 -7 25 67 33
83 45 86 61 3 20 3 20 -13 1 -8 -11 -22 -21 -31 -22 -26 -4 -64 -33 -58 -47 2
-7 -2 -21 -11 -32 -15 -20 -16 -19 -38 8 -12 15 -29 27 -37 27 -10 0 -8 5 6
18 18 18 19 18 36 -1 18 -19 18 -19 38 4 15 19 19 35 15 74 -3 35 1 55 11 67
15 15 14 16 -6 11 -20 -5 -22 -3 -16 28 6 33 5 33 -5 7 -6 -16 -18 -28 -27
-29 -12 0 -10 -3 6 -9 12 -5 22 -12 22 -15 0 -18 -42 -85 -50 -80 -6 4 -10 0
-10 -8 0 -8 -8 -21 -17 -28 -15 -12 -16 -12 -10 3 8 23 -4 29 -25 14 -18 -13
-21 -56 -5 -67 21 -14 -4 -27 -34 -19 -25 8 -30 6 -25 -5 3 -8 1 -15 -4 -15
-15 0 -12 21 6 41 9 10 16 31 17 48 1 17 5 31 10 31 11 0 43 34 50 54 5 13 14
16 31 12 23 -6 24 -4 16 25 -8 27 -6 32 11 36 12 3 18 11 15 19 -3 8 6 25 21
38 24 23 25 26 10 41 -10 9 -17 13 -17 8 0 -4 -7 5 -15 21 -9 16 -12 32 -9 35
4 3 9 0 11 -7 4 -10 8 -10 18 -2 8 6 12 17 9 24 -3 8 1 16 9 19 10 4 17 -2 20
-15 4 -14 11 -19 22 -14 9 3 23 6 30 6 8 0 17 9 20 20 5 16 12 19 27 14 16 -5
20 -3 15 9 -3 9 1 18 9 21 9 3 14 -1 14 -14 0 -17 3 -18 25 -8 14 6 25 15 25
20 0 4 13 8 29 8 17 0 33 5 36 10 9 14 25 12 25 -3z m-735 -29 c-3 -7 6 -35
20 -63 18 -37 24 -44 25 -27 0 55 32 71 93 47 23 -10 22 -36 -3 -42 -15 -4
-19 -11 -14 -25 5 -17 3 -19 -18 -13 -12 4 -27 13 -31 19 -6 7 -7 5 -4 -6 3
-9 -3 -33 -13 -53 -16 -30 -20 -34 -32 -22 -10 11 -18 12 -36 4 -17 -8 -26 -7
-35 3 -10 10 -8 12 11 7 15 -3 22 -1 22 9 0 10 7 13 25 8 16 -4 25 -2 25 6 0
7 -6 10 -14 7 -16 -6 -40 16 -29 26 3 4 -1 7 -10 7 -9 0 -19 -5 -22 -10 -4 -6
-16 -8 -28 -5 -12 4 -17 3 -11 -2 12 -10 16 -83 3 -83 -14 0 -30 38 -17 42 6
2 9 9 7 15 -3 8 -9 8 -22 -2 -18 -13 -18 -14 -1 -40 18 -27 18 -28 -10 -52
-33 -28 -48 -23 -21 7 18 19 17 20 -3 20 -11 0 -29 12 -40 27 -18 24 -22 26
-37 13 -12 -10 -15 -23 -12 -48 5 -30 4 -33 -16 -30 -15 2 -21 9 -19 22 2 13
0 16 -10 10 -17 -11 -38 -14 -38 -6 0 4 9 13 19 19 13 8 18 19 14 33 -7 28
-23 25 -23 -5 0 -14 -4 -25 -10 -25 -5 0 -10 3 -10 8 0 4 -3 17 -6 30 -5 18
-2 22 16 22 16 0 20 4 16 15 -9 25 11 17 37 -15 14 -17 29 -26 32 -20 3 5 4
14 1 19 -6 10 10 25 37 34 14 5 16 2 11 -18 -4 -15 -2 -25 5 -25 6 0 8 -7 4
-17 -4 -11 -3 -14 6 -9 7 4 9 16 6 28 -4 12 0 27 11 39 9 10 14 22 11 26 -7 6
38 33 56 33 5 0 16 -8 23 -17 11 -16 12 -11 10 32 -2 28 -1 44 1 38 4 -10 10
-9 26 2 26 18 28 18 22 3z m1692 -72 c-9 -22 13 -37 36 -25 13 8 22 8 30 0 7
-7 1 -15 -23 -24 -18 -8 -28 -17 -23 -20 5 -3 22 1 37 9 36 18 42 18 25 -3
-12 -14 -12 -16 0 -12 23 8 47 -24 46 -62 0 -26 -4 -35 -17 -36 -10 -1 -18 2
-18 8 0 5 4 9 8 9 5 0 9 13 9 29 0 26 -2 28 -19 18 -15 -10 -21 -9 -28 3 -8
13 -11 13 -22 1 -9 -10 -10 -15 -2 -18 12 -4 7 -43 -5 -43 -18 0 -30 24 -20
37 8 9 8 13 0 13 -6 0 -12 10 -12 23 -1 16 -2 18 -6 5 -6 -25 -23 -22 -23 3 0
12 -5 19 -12 17 -16 -6 -23 -48 -9 -48 6 0 11 -7 11 -15 0 -14 -4 -16 -30 -19
-6 -1 -16 10 -23 23 -16 33 -29 35 -57 11 -27 -24 -26 -23 -28 -7 -8 61 -8 61
23 67 24 4 31 11 33 33 4 29 13 33 40 16 14 -9 25 -8 48 4 38 19 37 19 31 3z"/>
<path d="M6026 1233 c4 -20 3 -24 -4 -14 -5 7 -15 10 -22 6 -7 -4 -16 -2 -21
6 -4 7 -11 10 -15 6 -4 -3 -2 -13 4 -20 9 -10 7 -19 -9 -35 -23 -26 -31 -28
-23 -7 8 20 -10 19 -27 -1 -10 -12 -10 -17 0 -23 6 -4 11 -12 10 -17 -4 -17
13 -44 27 -44 8 0 14 -4 14 -10 0 -5 7 -10 15 -10 10 0 15 -10 15 -30 0 -34
25 -42 33 -10 3 11 1 20 -4 20 -5 0 -9 12 -9 26 0 21 -3 24 -13 15 -19 -15
-53 10 -44 33 8 21 47 21 47 0 0 -9 6 -14 13 -11 6 2 11 9 10 15 -2 6 3 9 10
7 6 -3 19 0 27 5 13 9 13 11 0 20 -9 6 -18 6 -24 0 -14 -14 -36 -12 -36 3 0
27 20 34 61 23 35 -9 42 -8 50 7 12 21 32 22 49 2 7 -9 15 -13 18 -11 6 7 -24
36 -37 36 -6 0 -11 7 -11 15 0 8 -5 15 -11 15 -6 0 -9 -7 -6 -15 4 -8 2 -17
-3 -20 -6 -4 -10 -1 -10 4 0 20 -18 11 -24 -11 -5 -19 -8 -20 -15 -8 -7 10 -6
17 2 22 9 6 7 12 -7 23 -29 22 -37 18 -30 -12z"/>
<path d="M4008 1639 c-679 -681 -626 -624 -599 -638 17 -10 24 -8 38 10 20 24
20 23 102 102 34 32 61 62 61 65 0 4 16 20 35 35 19 15 42 41 51 58 10 19 21
29 30 25 8 -3 14 -1 14 4 0 5 55 64 123 133 67 68 132 134 143 148 25 28 56
59 102 102 17 17 32 34 32 38 0 12 110 118 184 176 38 31 68 63 72 78 3 14 13
25 23 25 9 0 49 33 88 73 66 66 71 74 58 91 -14 18 -50 -16 -557 -525z"/>
<path d="M8660 1966 c0 -9 5 -26 10 -36 9 -17 6 -21 -16 -26 -27 -7 -29 -22
-8 -91 9 -31 -11 -30 -59 2 -20 14 -37 22 -37 16 0 -5 8 -12 18 -16 15 -6 14
-8 -8 -18 l-25 -10 29 -6 c24 -5 27 -8 15 -18 -21 -17 -89 -28 -90 -14 -1 6
-2 16 -3 21 0 6 -8 15 -16 21 -13 8 -13 11 3 23 21 16 23 30 3 23 -8 -3 -17
-1 -19 6 -3 9 -8 9 -18 0 -7 -7 -20 -13 -30 -13 -11 0 -16 -8 -15 -29 1 -16 3
-29 6 -29 18 1 21 -4 10 -17 -16 -19 -22 -19 -46 4 -21 19 -144 36 -144 19 0
-4 4 -8 10 -8 5 0 7 -8 4 -17 -4 -13 -3 -15 4 -5 11 16 89 19 104 4 11 -11 -3
-20 -54 -36 -10 -3 -18 -15 -18 -26 0 -14 -4 -19 -12 -14 -8 5 -9 2 -3 -12 4
-10 7 -28 7 -39 -1 -11 5 -29 12 -40 7 -11 13 -37 15 -59 1 -21 8 -44 16 -52
7 -8 17 -24 20 -37 10 -37 29 -71 45 -84 9 -6 25 -30 35 -52 18 -37 24 -41 50
-39 17 1 36 -1 43 -6 8 -5 12 0 12 13 0 15 4 19 18 14 9 -4 20 -11 25 -17 5
-8 9 -8 15 0 22 32 46 32 88 2 l43 -30 29 21 c17 11 35 21 41 21 6 0 11 4 11
10 0 12 -50 -8 -66 -27 -9 -10 -15 -9 -34 7 -13 11 -27 20 -32 20 -4 0 -6 10
-3 23 7 30 -27 69 -52 61 -10 -4 -2 7 17 24 19 17 29 31 23 32 -7 0 -13 7 -13
15 0 8 -4 15 -10 15 -13 0 -13 -13 1 -27 18 -18 -26 -26 -66 -12 -19 7 -35 17
-35 21 0 5 -16 6 -35 2 -46 -8 -45 8 0 25 28 10 39 10 51 1 11 -10 21 -9 46 3
30 15 33 14 72 -16 23 -18 44 -36 47 -41 8 -10 49 2 49 14 0 10 37 22 70 24
14 1 26 7 26 14 3 26 5 26 18 3 8 -15 16 -20 20 -12 4 6 3 11 -3 11 -6 0 -8 6
-5 14 6 15 -22 30 -31 16 -6 -10 -45 19 -45 34 0 6 5 5 12 -2 14 -14 114 -16
122 -3 9 13 -6 22 -19 11 -16 -13 -75 -1 -75 15 0 7 -6 15 -14 18 -8 3 -13 16
-12 30 2 19 -1 24 -12 19 -11 -4 -14 -1 -9 11 4 11 1 17 -8 17 -8 0 -15 6 -15
13 0 6 -9 23 -20 37 -13 18 -16 28 -8 37 8 10 5 13 -13 14 -21 0 -22 1 -5 8
16 6 16 9 5 22 -17 17 -49 66 -49 74 0 4 5 3 11 -1 6 -3 15 -1 19 6 5 9 9 9
14 1 4 -6 2 -11 -3 -11 -6 0 -11 -5 -11 -11 0 -6 9 -9 20 -6 14 4 20 0 20 -11
0 -10 7 -26 15 -36 14 -18 15 -18 21 -2 4 10 3 21 -3 25 -5 3 -15 20 -22 38
-19 46 -91 141 -91 119z"/>
<path d="M9918 1855 c4 -21 1 -24 -13 -19 -12 5 -16 3 -13 -6 2 -8 19 -18 36
-22 18 -5 32 -13 32 -19 0 -6 4 -8 9 -5 5 3 23 1 40 -5 26 -9 30 -14 19 -26
-9 -12 -9 -16 3 -24 18 -11 26 -11 34 1 3 6 17 10 31 10 13 0 24 -4 24 -10 0
-5 9 -10 20 -10 24 0 26 -13 5 -30 -16 -13 -21 -35 -6 -25 6 3 13 0 18 -7 12
-19 53 -40 53 -28 0 5 -4 10 -8 10 -4 0 -13 14 -19 30 -13 35 -2 40 20 7 18
-28 69 -31 73 -4 1 9 -2 15 -7 11 -5 -3 -25 4 -44 16 -18 11 -44 23 -57 25
-13 3 -28 12 -34 20 -6 8 -27 15 -46 15 -27 0 -37 5 -41 20 -3 12 -14 20 -25
20 -12 0 -24 5 -27 10 -4 6 -15 8 -24 5 -21 -6 -48 19 -31 30 5 3 10 1 10 -4
0 -6 7 -11 15 -11 23 0 18 16 -10 34 -34 22 -43 20 -37 -9z"/>
<path d="M2815 1772 c-13 -9 -18 -59 -7 -66 6 -3 6 -25 1 -52 -6 -29 -5 -51 1
-58 5 -7 6 -27 2 -46 -7 -39 -6 -169 1 -177 3 -2 18 8 35 24 16 15 58 48 93
73 35 25 78 59 95 75 37 35 51 46 127 103 32 24 55 47 52 52 -5 9 -60 21 -175
39 -36 6 -85 16 -110 21 -65 16 -104 20 -115 12z"/>
<path d="M3255 1737 c30 -26 30 -26 9 -41 -11 -8 -41 -31 -65 -51 -24 -20 -53
-43 -64 -52 -11 -9 -45 -37 -75 -62 -30 -26 -73 -60 -95 -76 -22 -16 -53 -42
-70 -56 -16 -15 -40 -36 -52 -47 -24 -20 -30 -42 -12 -42 6 0 38 22 72 50 34
27 105 84 157 126 87 69 128 104 226 188 19 15 32 32 29 36 -3 4 9 10 25 14
47 9 35 26 -17 26 -27 0 -59 3 -73 6 -24 6 -24 6 5 -19z"/>
<path d="M8940 1521 c0 -5 -10 -12 -22 -16 l-23 -8 23 -4 c12 -2 22 -11 22
-19 0 -8 4 -14 10 -14 5 0 7 -6 4 -14 -3 -8 -1 -17 5 -21 18 -10 13 -28 -6
-21 -9 4 -20 1 -25 -6 -6 -9 -10 -7 -14 10 -4 13 -13 22 -22 20 -22 -4 -27
-28 -7 -28 12 0 15 -5 11 -16 -3 -9 -6 -18 -6 -20 0 -2 -14 -4 -32 -4 -30 0
-31 0 -13 20 22 24 1 28 -22 4 -15 -15 -18 -14 -35 8 -11 14 -21 19 -25 13 -5
-5 -25 -18 -47 -28 -36 -17 -40 -17 -57 -1 -28 25 -31 13 -5 -16 33 -37 59
-50 79 -38 12 6 26 4 47 -9 31 -18 39 -38 18 -46 -7 -3 4 -3 26 0 36 6 38 5
31 -17 -5 -17 -4 -21 6 -15 7 5 25 11 40 14 21 4 26 10 20 20 -7 10 -13 11
-30 2 -17 -10 -21 -9 -21 4 0 9 8 19 17 22 10 4 27 17 39 30 12 13 29 23 38
23 9 0 16 6 17 13 1 6 4 1 8 -13 4 -15 16 -27 31 -30 14 -3 26 -14 28 -23 3
-15 -2 -17 -35 -13 -21 2 -42 5 -47 5 -4 1 -6 8 -2 16 6 16 -3 19 -28 9 -21
-8 -20 -24 2 -40 16 -12 15 -15 -12 -43 -17 -17 -36 -31 -43 -31 -7 0 -13 -4
-13 -10 0 -5 -7 -10 -15 -10 -8 0 -15 -4 -15 -10 0 -5 11 -10 25 -10 30 0 32
-11 6 -27 -16 -10 -24 -7 -56 23 -20 19 -41 31 -47 28 -5 -3 0 -12 11 -21 27
-18 27 -33 1 -33 -11 0 -20 -4 -20 -10 0 -5 9 -10 19 -10 25 0 32 -22 13 -36
-13 -9 -11 -12 12 -18 23 -6 25 -9 16 -26 -6 -11 -17 -20 -25 -20 -9 0 -12 -6
-9 -15 4 -8 10 -12 15 -9 6 3 25 -10 43 -30 38 -42 45 -43 68 -12 15 21 15 25
3 30 -8 3 -15 15 -15 26 0 15 7 20 25 20 27 0 50 32 41 56 -4 10 0 14 11 12
28 -5 26 27 -2 40 -14 7 -28 19 -31 27 -4 8 -13 15 -21 15 -17 0 -13 22 5 28
7 2 12 -3 12 -12 0 -9 7 -16 15 -16 8 0 15 -5 15 -11 0 -7 11 -9 27 -6 60 11
68 -12 21 -60 -26 -27 -29 -35 -19 -46 7 -6 11 -7 9 -2 -3 11 32 55 44 55 5 0
8 -7 8 -15 0 -8 -7 -15 -15 -15 -19 0 -20 -37 -1 -55 7 -8 26 -13 41 -12 39 3
41 -17 5 -53 -32 -31 -28 -41 6 -15 25 19 48 19 40 0 -7 -20 8 -19 24 0 10 12
10 19 2 27 -18 18 -15 49 4 41 9 -3 25 -6 37 -7 16 -1 23 -8 25 -28 2 -16 9
-28 18 -28 8 0 14 -4 14 -10 0 -5 8 -10 17 -10 14 0 13 4 -6 21 -15 14 -21 29
-18 44 3 16 -1 25 -14 28 -11 3 -24 26 -35 61 -10 31 -24 56 -31 56 -7 0 -13
7 -13 15 0 8 -3 15 -7 15 -5 0 -16 14 -25 30 -9 17 -24 30 -33 30 -18 0 -19
12 -3 28 9 9 9 12 0 12 -7 0 -12 10 -12 23 0 13 -14 36 -30 52 -17 16 -28 35
-26 42 3 7 -1 13 -8 13 -16 0 -75 109 -69 128 3 6 2 12 -1 12 -3 0 -6 -4 -6
-9z"/>
<path d="M7520 1326 c-12 -23 -14 -23 -28 -9 -10 10 -17 12 -20 5 -2 -6 -10
-8 -18 -5 -9 3 -14 -2 -14 -14 0 -25 -25 -77 -45 -93 -16 -13 -19 -106 -4
-116 5 -3 6 2 3 10 -3 8 3 19 15 26 12 6 21 17 21 25 0 20 16 19 24 -2 6 -15
9 -14 19 7 7 14 22 26 33 28 23 3 44 39 44 74 0 17 -3 18 -15 8 -8 -7 -12 -16
-9 -21 3 -5 1 -9 -4 -9 -14 0 -22 39 -10 46 10 7 31 55 25 60 -2 2 -10 -7 -17
-20z"/>
<path d="M7686 1294 c-11 -8 -28 -12 -38 -8 -13 4 -16 1 -12 -10 4 -10 0 -18
-10 -22 -9 -3 -16 -15 -16 -25 0 -23 18 -25 26 -4 8 21 24 19 24 -2 -1 -23
-26 -57 -34 -45 -4 7 -15 6 -31 -1 -29 -14 -35 -41 -6 -32 10 3 31 0 46 -7 24
-11 29 -10 45 10 10 12 23 22 28 22 6 0 13 13 17 30 3 16 15 40 26 54 24 30
16 50 -16 42 -13 -3 -25 -2 -27 3 -2 5 -12 3 -22 -5z"/>
<path d="M8610 1262 c0 -4 5 -13 12 -20 9 -9 9 -15 0 -24 -9 -9 -12 -9 -12 2
0 9 -5 7 -14 -6 -14 -19 -15 -19 -38 4 -28 26 -38 28 -38 7 0 -11 -11 -15 -36
-15 -30 0 -34 -2 -25 -14 9 -10 9 -16 1 -21 -6 -4 -8 -15 -5 -26 4 -10 2 -19
-4 -19 -5 0 -12 8 -14 18 -3 10 -5 6 -6 -10 0 -16 -5 -28 -11 -28 -5 0 -10 -4
-10 -10 0 -5 13 -7 30 -4 22 5 31 2 36 -10 6 -17 -12 -64 -29 -77 -5 -3 6 -6
22 -7 45 -1 55 -11 35 -33 -17 -19 -34 -21 -46 -4 -8 10 -28 -10 -28 -28 0
-11 74 1 78 13 6 18 22 10 22 -11 0 -20 4 -20 159 -18 150 3 158 4 147 21 -12
20 -31 24 -41 8 -10 -15 -35 -12 -35 5 0 8 5 15 11 15 6 0 -11 20 -37 45 -27
25 -53 45 -57 45 -4 0 -19 -8 -33 -17 -22 -14 -27 -14 -35 -2 -6 9 -3 18 9 26
9 7 23 17 30 23 9 8 21 9 43 1 30 -10 59 -6 59 10 0 13 -14 11 -28 -3 -9 -9
-12 -9 -12 0 0 7 -5 12 -11 12 -20 0 -37 27 -32 52 3 14 0 29 -6 32 -6 4 -11
0 -11 -8 0 -9 -7 -16 -15 -16 -8 0 -15 3 -15 8 1 11 50 44 50 33 0 -6 9 -15
20 -21 19 -10 20 -10 8 9 -6 11 -22 25 -35 32 -13 7 -23 18 -23 26 0 7 -7 13
-15 13 -8 0 -15 -4 -15 -8z"/>
</g>
</svg>
